<svg height="4516" width="4598" xmlns="http://www.w3.org/2000/svg"><path d="m0 0c86.84708435-.05796505 173.69438132-.08705044 361.30175781.25952148.77163626.00168207 1.54327252.00336414 2.3382917.00509718 40.77984966.08889809 81.55968784.18261123 122.33952213.27827319 25.26760783.05926781 50.53521807.11739804 75.8028304.17471565 1.78676774.00405437 3.57353548.00810883 5.36030323.01216338 7.19088323.01631621 14.38176647.03262637 21.57264973.04892881 20.0765702.04551811 40.15314002.09120444 60.22970954.13701934.91255584.0020824 1.82511167.00416481 2.76532071.00631031 28.86101658.06587081 57.72203143.1324701 86.58304508.19961277.92897997.00216115 1.85795993.0043223 2.81509081.00654893 15.06068103.03503963 30.12136195.07012408 45.18204287.10521125 59.46157174.13852597 118.92314782.27498962 178.38472896.40941998 3.75074535.00848023 7.50149069.01696069 11.25223604.02544116 1.39136048.00314585 1.39136048.00314585 2.81082926.00635526 10.28668318.02325848 20.57336633.04652327 30.86004948.06979564 1.38569739.00313475 1.38569739.00313475 2.79938867.00633283 50.71193259.11472857 101.42386134.23113181 152.13578889.34806548 1.80536686.00416251 3.61073372.00832495 5.41610058.01248733.89203709.00205665 1.78407419.0041133 2.70314271.00623228 1.79873808.00414705 3.59747616.00829403 5.39621424.01244094 4.47753403.01032277 8.95506806.02064676 13.43260209.03097333 23.44044873.05405437 46.88089858.10758337 70.32134965.16061113 41.69881164.09433516 83.39761898.19038356 125.09641948.28952633 1.17249845.0027854 1.17249845.0027854 2.36868373.00562707 80.41901558.19106584 160.83787083.4145453 435.73190221 1.38328895.00218444 14.3073164.00377592 28.61463277.0047562 42.9219493.00046513 6.64930218.00110641 13.29860423.00216891 19.94790634.00695612 44.76283927-.05920731 89.52508479-.19212103 134.28771425-.03220902 10.98256189-.06240285 21.96512886-.09230727 32.94769725-.04867836 17.86042233-.09871935 35.72084052-.1497429 53.5812563-.04927652 17.24999789-.09783289 34.4999976-.14550782 51.75-.00448049 1.62102964-.00448049 1.62102964-.0090515 3.27480736-.01499508 5.42668088-.02997692 10.8533618-.04495221 16.28004274-.12236557 44.33621465-.24699433 88.67242271-.37324238 133.00862646-1.89382718.79640542-3.78841679 1.59099793-5.68331909 2.38484192-1.05496611.44268628-2.10993221.88537256-3.19686699 1.34147358-4.36438562 1.78178906-8.78997584 3.33318938-13.25262642 4.84790325-1.9328719.66435727-3.86573272 1.32874675-5.79858398 1.99316406-1.00650605.34438111-2.01301209.68876221-3.05001831 1.0435791-24.55193133 8.40794426-48.9790483 17.14496555-73.37796021 25.9852295-5.75108439 2.0830893-11.50490529 4.15851869-17.25944519 6.2320404-29.35216219 10.57698127-58.64095049 21.30810169-87.86140442 32.2434082-9.16305589 3.42676442-18.33461356 6.83031376-27.50805664 10.22914124-34.39660643 12.74597109-68.75777008 25.57336453-103.01171875 38.69921875-1.06031433.40607483-2.12062866.81214966-3.21307373 1.23052979-28.12607307 10.77220928-56.22340284 21.61645398-84.26495361 32.60687255-3.85600818 1.51093523-7.71324884 3.01867516-11.57128907 4.52441407-66.88645274 26.10634178-133.50091176 52.94600395-199.7199707 80.70318603-2.26487051.94931464-4.53001065 1.89798393-6.79516601 2.84661865-24.43183899 10.23560474-48.79786616 20.62220613-73.12872315 31.09545899-2.12667119.91537735-4.25358582 1.83018654-6.3805542 2.74487304-32.73319883 14.08302567-65.31964841 28.49740233-97.69290161 43.3892212-4.81620501 2.21356493-9.64111732 4.40718625-14.47164917 6.58929443-29.33653157 13.25648828-58.4115184 27.04454443-87.34936523 41.14881897-5.33942735 2.60151701-10.6857272 5.18863648-16.03344727 7.77305603-20.8215113 10.04546359-20.8215113 10.04546359-41.34765625 20.67578125-4.20253158 2.25110138-8.44107571 4.42707699-12.6875 6.59375-14.62264406 7.46616078-29.10588475 15.05999132-43.34765625 23.23828125-4.42436959 2.53529403-8.90720433 4.93044779-13.43359375 7.27734375-11.08475422 5.78067255-21.81049196 12.19081696-32.5625 18.5625-1.04317383.61713867-2.08634766 1.23427734-3.16113281 1.87011719-27.38317978 16.22675599-54.10923752 33.37708559-79.83886719 52.12988281-.70656738.51353027-1.41313477 1.02706055-2.14111328 1.55615234-19.64267659 14.29733348-38.67706137 29.25658783-57.171875 45.01123047-1.67051575 1.41860874-3.34802214 2.82855521-5.02685547 4.23730469-14.99431365 12.63385699-28.91255343 26.35599442-42.78515625 40.1953125-.95231003.94829178-.95231003.94829178-1.92385864 1.91574097-6.53818958 6.51725247-12.99185393 13.02578294-18.95114136 20.08425903-1.02074846 1.15732519-2.04418593 2.31228431-3.0703125 3.46484375-7.482322 8.4784281-14.49020999 17.23083181-21.25292969 26.29199219-1.71870546 2.29928156-3.45132921 4.58763892-5.18457031 6.87597656-41.29808153 54.87304525-72.11729709 123.63704123-62.3046875 193.6796875 8.65221731 53.84880591 40.90103216 101.66405134 83.8125 134.6875.86238281.70253906 1.72476562 1.40507813 2.61328125 2.12890625 18.06401553 14.44632365 38.06603233 26.89487517 58.38671875 37.87109375.9286084.50805176 1.8572168 1.01610352 2.81396484 1.53955078 12.45695749 6.78844745 25.13953291 12.94686236 38.12353516 18.64794922.61195221.27019958 1.22390442.54039917 1.85440063.81878662 21.51770979 9.46074361 43.6736469 17.37155592 65.89559937 24.99371338 1.1675885.40185516 2.335177.80371033 3.53814697 1.21774292 43.61690238 15.00401202 87.54539976 29.04205152 131.55831909 42.8336525 5.13858639 1.61033588 10.27629903 3.22344279 15.41378785 4.83727646 43.82767104 13.76564406 87.70730632 27.34509369 131.67675781 40.6508789 7.74313878 2.34323845 15.48333828 4.69606871 23.22314453 7.05029297 34.36011186 10.44581165 68.75323084 20.78108474 103.15234375 31.09765625 1.16473846.34931454 2.32947693.69862907 3.5295105 1.0585289 22.88679692 6.86367594 45.77464548 13.72384314 68.66336059 20.58111954 53.72870211 16.09682457 107.44809825 32.22067395 161.09953308 48.57344055 9.64813501 2.94056736 19.29840925 5.87399812 28.95037461 8.80196762 60.38491451 18.3190639 120.68094942 36.92031857 180.79469681 56.11244583 3.75960279 1.20002447 7.51973885 2.3983677 11.27990722 3.59661865 54.81691779 17.47731377 109.57475126 35.3191367 163.43261719 55.58837891.86248352.32359497 1.72496704.64718994 2.61358643.98059082 88.53587905 33.2436074 88.53587905 33.2436074 100.38641357 51.01940918.54499694 2.99748319.64325352 5.01991608-1.0690918 7.62890625-3.96014038 4.62161585-8.26469139 8.14344063-13.2434082 11.62109375-.79341797.56227295-1.58683594 1.1245459-2.40429688 1.70385742-7.94429823 5.58829954-16.05020791 10.8948527-24.28320312 16.04614258-.92748047.58088379-1.85496094 1.16176758-2.81054688 1.76025391-17.20550633 10.74369724-34.64306083 21.06592959-52.18945312 31.23974609-.86455811.50140503-.86455811.50140503-1.74658203 1.01293945-8.07378819 4.68096999-16.1603002 9.33960664-24.25341797 13.98706055-.91152832.52400391-1.82305664 1.04800781-2.76220703 1.58789062-11.22895873 6.45204415-22.50356929 12.81902271-33.80932617 19.13549805-5.97465811 3.33868528-11.93944504 6.69370439-17.89233399 10.07104492-12.5853353 7.13963028-25.24429424 14.14144049-37.92204284 21.1150055-4.35739039 2.3972561-8.71126304 4.80080464-13.06330872 7.20774841-12.26006657 6.77865789-24.54058376 13.51399461-36.87402344 20.15869141-6.79785446 3.67448514-13.52743671 7.4576344-20.23925781 11.28662109-8.53263993 4.8626951-17.1648501 9.48530402-25.88964844 13.99291992-7.4157079 3.83564586-14.75567627 7.79518326-22.07641601 11.80859375-7.05715388 3.86827786-14.13373839 7.69896461-21.22143555 11.51098633-1.08772705.58507324-2.1754541 1.17014648-3.29614258 1.77294922-2.21304985 1.19009932-4.42618495 2.38004013-6.6394043 3.56982422-5.43950442 2.92489557-10.87686981 5.85376156-16.31445312 8.78222656-2.16926561 1.16797845-4.33853645 2.33594719-6.5078125 3.50390625-4.30773112 2.31949776-8.61498486 4.63987859-12.921875 6.9609375-21.83433361 11.76548816-43.69065767 23.48829252-65.60061646 35.11230469-9.52443593 5.05315595-19.03377729 10.13348057-28.53219604 15.23535156-9.34804306 5.02039113-18.73271872 9.96263299-28.15209961 14.84765625-6.34961166 3.30292708-12.64029327 6.70120808-18.91040039 10.15234375-9.17205543 5.04638183-18.44940304 9.87177531-27.75964355 14.65594482-7.88728226 4.05528502-15.72550112 8.18257396-23.49035645 12.46905518-9.45989449 5.22072373-19.04510654 10.17516803-28.65826416 15.10525513-8.13264889 4.17315566-16.21768252 8.40644728-24.21673584 12.83224487-9.54765667 5.27698957-19.22998429 10.27569412-28.9375 15.25-.76800934.39359711-1.53601868.78719421-2.32730103 1.19271851-3.00354874 1.53907505-6.00718919 3.07797093-9.01100158 4.61653137-10.42766841 5.34391227-20.78879406 10.80710119-31.10310364 16.36653137-15.48197924 8.33886637-31.06009617 16.46522441-46.71011353 24.48419189-.71956878.3687323-1.43913757.7374646-2.18051147 1.11737061-.70546967.36148132-1.41093933.72296265-2.13778687 1.09539795-7.5496836 3.87186778-15.05411204 7.82730589-22.55361938 11.79522705-4.50520417 2.37561107-9.02275193 4.72762426-13.5390625 7.08203125-1.44777832.75482666-1.44777832.75482666-2.92480469 1.52490234-1.96186575 1.02271638-3.92378009 2.04533956-5.88574219 3.0678711-4.81390056 2.50930564-9.62662492 5.02086493-14.43945312 7.53222656-1.91666086 1.00001113-3.83332753 2.00001112-5.75 3-1.423125.7425-1.423125.7425-2.875 1.5-18.20833333 9.5-36.41666667 19-54.625 28.5-.94842773.49483887-1.89685547.98967773-2.87402344 1.49951172-1.91989866 1.00167209-3.8398206 2.00329957-5.75976562 3.00488281-4.7424073 2.47405491-9.48442978 4.9488412-14.22558594 7.42529297-11.43734268 5.97283451-22.88613439 11.92314855-34.34277344 17.85888672-7.18867712 3.72560114-14.37119534 7.46272546-21.54785156 11.21142578-9.47588603 4.94969466-18.96505843 9.87343833-28.45751953 14.79125977-7.14559242 3.70317908-14.28440572 7.41901409-21.41748047 11.14624023-10.46350842 5.46614852-20.94816017 10.89109783-31.4354248 16.3114624-.61170044.31616272-1.22340088.63232544-1.8536377.95806885-.91803406.47448578-.91803406.47448578-1.85461426.95855713-6.37153244 3.29365115-12.73926726 6.59461605-19.10632324 9.89691162-1.10569336.57347168-2.21138672 1.14694336-3.35058594 1.73779297-2.22723343 1.15523509-4.45444702 2.31050844-6.68164062 3.46582031-6.7404626 3.49625806-13.48162815 6.99116057-20.22265625 10.48632813-5.60016149 2.90369749-11.20016369 5.80770123-16.79980469 8.71240234-14.61132185 7.57880963-29.22844169 15.14633849-43.84963989 22.70606995-4.19648644 2.16986444-8.39231438 4.34099721-12.58786011 6.51268005-13.53221454 7.00392198-27.0724443 13.99203448-40.61999512 20.96624756-9.26205593 4.76849021-18.51701964 9.55020086-27.76281738 14.35015869-14.07651342 7.30718115-28.17675323 14.5679931-42.27832031 21.82666016-6.2225058 3.20313508-12.44382583 6.40857182-18.66522217 9.61386108-3.435436 1.769923-6.87095079 3.53969305-10.30645752 5.30947876-1.37500038.7083326-2.75000038 1.41666594-4.125 2.125-41.25000061 21.25000032-41.25000061 21.25000032-43.31259155 22.31254578-1.37469633.70817782-2.74939116 1.41635856-4.12408448 2.12454223-3.44213379 1.77323665-6.88429391 3.54642216-10.32650756 5.31950379-6.1322246 3.15876568-12.26428682 6.31784379-18.39532471 9.47891235-16.31112047 8.40971568-32.63238063 16.7993322-48.96386719 25.16943359-11.17420194 5.72715119-22.3424076 11.46570835-33.50262451 17.22006226-12.77967518 6.58922187-25.57069859 13.15609427-38.36627197 19.71438599-10.7953562 5.53317912-21.58713612 11.07319993-32.37335205 16.62417602-18.5002062 9.52084298-37.01814684 19.00690149-55.53869629 28.48809815-7.7223575 3.95341611-15.44375757 7.90870143-23.16522217 11.86386108-4.26877921 2.18657094-8.53762159 4.37301855-12.80645752 6.55947876-1.70833364.87499941-3.41666697 1.74999941-5.125 2.625-10.25000071 5.25000036-10.25000071 5.25000036-12.81259155 6.56254578-1.70802937.87484505-3.41605753 1.74969246-5.12408448 2.62454223-4.27547413 2.18989004-8.55096935 4.37973887-12.82650756 6.56950379-7.63215595 3.90894401-15.26417768 7.8181486-22.89538575 11.72894287-21.87659226 11.21115399-43.76335614 22.40221459-65.65762329 33.57881164-.98362518.5021251-1.96725036 1.00425019-2.98068237 1.52159119-1.47555862.75324806-1.47555862.75324806-2.98092651 1.52171326-10.4509507 5.33542997-20.89915081 10.67623738-31.34719849 16.01734924-17.23717017 8.81145274-34.47649983 17.61866761-51.71850586 26.4206543-9.08187509 4.63637009-18.16322936 9.27374511-27.24200439 13.91618347-4.19327338 2.14415841-8.38690986 4.28760615-12.58056641 6.43101501-1.9679117 1.00605873-3.93565315 2.01245057-5.90319824 3.01922608-11.16880349 5.71483464-22.35589525 11.38894978-33.59211731 16.97032165-5.40607144 2.69061455-10.7640258 5.45674279-16.08860779 8.30509949-9.37227516 4.98519383-18.87277307 9.70659482-28.375 14.4375-13.75736032 6.83244143-13.75736032 6.83244143-27.375 13.9375-10.27894365 5.50586963-20.74731732 10.63944033-31.1842041 15.8369751-12.18844968 6.0434016-12.18844968 6.0434016-24.25918865 12.31682682-1.42545682.7546864-2.8569734 1.49819386-4.29770089 2.22330284-4.17832855 2.12445854-7.99407955 4.43859607-11.81498241 7.15635776-22.75386981 14.9622668-48.99383644 12.37254847-75.17224222 12.01019152-7.45484154-.09993289-14.90933385-.11383917-22.36474806-.12618195-13.96408055-.02530026-27.92704136-.11544098-41.89054573-.24141618-14.05196621-.1263195-28.10363993-.22170637-42.1560669-.27813721-.88605916-.00356089-1.77211833-.00712179-2.68502778-.01079059-4.5228101-.0179531-9.04562247-.03523572-13.56843656-.05215346-9.32284618-.03494969-18.64567731-.0735175-27.96850526-.11300505-.94283653-.00397698-1.88567306-.00795396-2.85708039-.01205145-14.72708551-.06267662-29.45402639-.14236535-44.18097503-.23132623-2.02874699-.01220823-4.05749402-.02441168-6.08624107-.03661043-1.01001901-.00607448-2.02003802-.01214896-3.06066366-.01840752-57.73957101-.34699365-115.47851346-.50074251-173.21901176-.59171081-7.28034118-.0114935-14.56068132-.02355959-21.8410213-.03578734-1.80446171-.00302973-1.80446171-.00302973-3.64537719-.00612067-2.43098713-.00408524-4.86197425-.00817304-7.29296136-.01226338-6.07693593-.01021644-12.15387195-.02037147-18.23080799-.03051941-1.20254697-.0020099-2.40509394-.0040198-3.64408174-.0060906-7.28195834-.0121544-14.56391693-.02415305-21.84587569-.03605462-50.73593603-.0830422-101.47180854-.18753935-152.20764612-.31772447-2.17763779-.00558693-4.35527562-.01115505-6.53291351-.01670415-49.27444781-.12561594-98.54844925-.29084532-147.82230791-.5663993-1.39916189-.00779886-1.39916189-.00779886-2.82658968-.01575527-37.99011252-.21240997-75.97994498-.47191792-113.96979704-.72594395-.04587314-81.35714947-.0733384-162.71442569.25952148-395.51953125.00168207-.77232871.00336414-1.54465742.00509718-2.34039003.08838944-40.58283821.18221574-81.16566327.27827319-121.74848397.0594618-25.12511706.11756435-50.25023698.17471565-75.3753594.00405439-1.78183007.00810885-3.56366013.01216338-5.3454902.01631832-7.17223887.03262853-14.34447776.04892881-21.51671667.04549926-20.01900476.09118829-40.03800909.13701934-60.0570131.0020824-.90963069.00416481-1.81926138.00631031-2.75645664.06578793-28.73187868.13238809-57.46375541.19961277-86.19563076.00216115-.92368019.0043223-1.84736038.00654893-2.79903088.03503277-14.97144312.07012061-29.94288611.10521125-44.91432908.13857719-59.12545937.27506773-118.25092312.40941998-177.37639224.00424146-1.86642235.00848298-3.7328447.01272455-5.59926705.00635736-2.79744457.01271468-5.59488914.01907187-8.39233371.02114981-9.30685132.04230191-18.61370263.06345959-27.92055393.00422315-1.85768394.00844611-3.71536789.01266888-5.57305184.11485571-50.52555387.2312078-101.05110428.34806548-151.57665355.0020617-.89145513.0041234-1.78291026.00624757-2.70137917.03754808-16.23531068.03754808-16.23531068.05588631-24.16036395.04421594-19.10961342.08829107-38.21922714.13187226-57.32884202.00190418-.8349451.00380835-1.66989021.00577023-2.53013668.00765711-3.35778694.01531319-6.71557388.02296864-10.07336082.09457266-41.47787394.19072089-82.95574397.28952633-124.43360806.00185694-.78008302.00371387-1.56016604.00562707-2.36388793.19667591-82.61369916.42332211-165.22726923 1.38328895-456.40173707 63.99342106-.02000298 127.98638068-.00042811 191.97964147.14783417 10.12536745.02340467 20.25073811.04528522 30.37610887.06719961 20.9832525.04546868 41.96650111.09257368 62.9497486.14029161 16.30029825.03706403 32.60059739.07371337 48.90089716.1101001 4.77106514.01065506 9.54213028.02131221 14.31319541.03197009 1.78168041.0039799 1.78168041.0039799 3.59935437.00804021 33.24746401.07428422 66.49492676.14910948 99.74238701.22505489 1.24364305.00284051 2.4872861.00568101 3.7686153.00860759 6.29637615.0143821 12.59275229.02876828 18.88912843.04315541 1.24936735.00285468 2.4987347.00570936 3.78596166.00865055 2.5265308.0057729 5.0530616.01154615 7.57959239.01731973 39.0240481.08916242 78.04810025.17629951 117.07215644.2618444 44.3681468.0972609 88.73628906.19635709 133.10442656.29777723 4.8047011.01097685 9.60940221.02194722 14.41410333.03291315 1.18206322.00269888 2.36412643.00539776 3.58200974.00817842 16.17322362.03689314 32.34644921.07274817 48.51967714.10770011 27.31003267.05903317 54.62005879.12050798 81.9300762.18624359 1.57645319.00378807 1.57645319.00378807 3.18475392.00765266 106.10344869.25563248 212.20578969.75813411 318.308166 1.28946648-.00037972-.57850381-.00075944-1.15700763-.00115067-1.75304186-.0608487-93.37840655-.08946057-186.75686896.43865067-566.62195814.00552867-2.28992526.01105712-4.57985051.01658535-6.86977577.13346712-55.23934413.27423955-110.47866881.4185307-165.71798563.09308159-35.63480351.1839392-71.26961204.27289176-106.9044261.00298811-1.19675731.00597623-2.39351461.00905489-3.62653729.03004094-12.0324025.06004434-24.06480509.0900204-36.09720775.06091501-24.45097225.12207854-48.90194387.18339542-73.35291512.00281097-1.12104072.00562195-2.24208143.00851811-3.39709308.18362449-73.21969719.3730142-146.43937965.56350337-219.65905926z" fill="#81c400" transform="translate(1417 240)"/><path d="m0 0v368h1223v1868c-403.59 0-807.18 0-1223 0v1204c-606.21 0-1212.42 0-1837 0 0-317.13 0-634.26 0-961l25-14c7.00534024-3.99092111 14.00606917-7.98921174 21-12 4.58231646-2.62677914 9.16547084-5.25208512 13.75-7.875.59214294-.33880188 1.18428589-.67760376 1.79437256-1.02667236 9.47629787-5.41949247 18.9887197-10.77182072 28.51983642-16.09442139 10.01854856-5.59871788 19.97999242-11.29458468 29.93579102-17.00390625 4.58231646-2.62677914 9.16547084-5.25208512 13.75-7.875.88821442-.50820282.88821442-.50820282 1.79437256-1.02667236 9.47258846-5.41737106 18.98086613-10.76837451 28.5088501-16.08782959 7.40940421-4.1397844 14.78772148-8.33097247 22.15136718-12.55151367 6.27249147-3.59377563 12.56135662-7.15755478 18.85791016-10.70898438 9.21994828-5.20095616 18.41255712-10.44880705 27.59805298-15.71026611 8.33498421-4.77257354 16.69906147-9.4900811 25.08944702-14.16473389 8.20403639-4.5709036 16.34122779-9.24094778 24.4375-14 8.49841333-4.99344928 17.07789487-9.79826492 25.74829102-14.48583984 8.79562047-4.76235675 17.47214582-9.72068821 26.14135742-14.7084961 5.55311226-3.19308593 11.11243929-6.37531328 16.67285156-9.55566406.59419739-.33994995 1.18839478-.6798999 1.80059814-1.03015137 9.30788428-5.32320128 18.65127162-10.58061635 28.01483155-15.80529785 7.83993509-4.38070307 15.64268521-8.82422589 23.43457031-13.28955078 9.82295082-5.62927536 19.67955875-11.19445444 29.56640625-16.7109375 7.83955745-4.38063766 15.64195306-8.8240396 23.43359375-13.2890625 9.94026565-5.69574642 19.91158416-11.33283161 29.91357422-16.91967773 9.77492689-5.46017052 19.52212853-10.96861048 29.265625-16.48461915 2.79456405-1.58086122 5.59062237-3.15904455 8.38720703-4.73632812 9.85865629-5.56204275 19.70137958-11.15071459 29.5244751-16.77532959 11.59343135-6.63813282 23.22633773-13.20199909 34.8895874-19.71685791 8.74443217-4.88605544 17.4596992-9.82363542 26.17675781-14.75830078 5.73932188-3.24820776 11.48124411-6.49181699 17.22265625-9.73632813 4.76743945-2.69432317 9.53428912-5.38967761 14.29980469-8.08740234 9.96785509-5.64103593 19.94751502-11.25983985 29.9453125-16.84765625 8.50174853-4.75228287 16.9738161-9.55254834 25.42236328-14.39868164 7.85420529-4.49842578 15.75367129-8.91427425 23.65576172-13.32788086 7.47648798-4.18020387 14.92104174-8.41289263 22.3503418-12.67626953 6.7254981-3.85313009 13.48846639-7.63641413 20.2590332-11.40966797 8.30933803-4.6319053 16.55164097-9.36209581 24.75-14.1875 8.94817518-5.26190809 18.004252-10.27841301 27.15087891-15.18603516 7.32969955-3.93957883 14.57178421-8.0110863 21.78344726-12.16210937 6.80573094-3.91516958 13.6475373-7.76230919 20.50317383-11.58935547 7.68935025-4.29452468 15.36026595-8.61780637 23-13 8.65558251-4.96391445 17.35234898-9.85131266 26.0625-14.71875 6.99040602-3.90741369 13.96872304-7.83540086 20.9375-11.78125 7.98774138-4.52207677 15.98881136-9.0195953 24-13.5 11.85394284-6.63040428 23.68057699-13.30830048 35.5-20 12.8709052-7.28700801 25.75468342-14.54975233 38.66357422-21.76928711 6.95582154-3.89208901 13.90011963-7.80396106 20.83642578-11.73071289 9.03940309-5.11734803 18.09814296-10.1993318 27.1640625-15.26953125 6.95563545-3.89204912 13.89978954-7.80380647 20.8359375-11.73046875 9.03940309-5.11734803 18.09814296-10.1993318 27.1640625-15.26953125 6.95563545-3.89204912 13.89978954-7.80380647 20.8359375-11.73046875 9.03940309-5.11734803 18.09814296-10.1993318 27.1640625-15.26953125 6.95563579-3.8920493 13.89975553-7.80386617 20.8359375-11.73046875 13.19637709-7.46932638 26.431318-14.86936445 39.66601562-22.27050781 11.12369406-6.22143605 22.24210843-12.45146753 33.33398438-18.72949219 11.09472704-6.27963839 22.21613393-12.51100698 33.34277344-18.73388672 5.22016367-2.92009465 10.43861335-5.84324894 15.65722656-8.76611328 2.08332501-1.16668154 4.16665834-2.3333482 6.25-3.5l3.125-1.75 84.375-47.25c1.03108887-.57741943 2.06217773-1.15483887 3.12451172-1.74975586 2.08492764-1.16753993 4.16988862-2.33502033 6.25488281-3.50244141 5.18421446-2.90282025 10.36785964-5.8066474 15.55029297-8.71264648 10.80234562-6.05575711 21.61544263-12.09124499 32.4453125-18.09765625 8.31199632-4.61047724 16.6062705-9.2498695 24.875-13.9375 11.64467263-6.60040388 23.3450369-13.09881964 35.05175781-19.58837891 5.6923734-3.15571252 11.38313835-6.31431839 17.07324219-9.47412109 1.67787598-.93175049 1.67787598-.93175049 3.38964844-1.88232422 7.50380557-4.16962696 14.99748495-8.35700223 22.48535156-12.55517578 12.01303568-6.73527072 24.0504417-13.42616786 36.09277344-20.10888672 5.63674624-3.1285638 11.27191066-6.25997405 16.90722656-9.39111328 2.24999232-1.25001382 4.49999232-2.50001382 6.75-3.75 1.11375-.61875 2.2275-1.2375 3.375-1.875l37.125-20.625c1.11358887-.61866943 2.22717773-1.23733887 3.37451172-1.87475586 2.2515969-1.25086907 4.50322454-2.50168281 6.75488281-3.75244141 5.60081992-3.11125182 11.20111452-6.22344143 16.80029297-9.33764648 12.20548117-6.78716009 24.42186587-13.55394033 36.652771-20.2951355 8.73198653-4.81305608 17.45396241-9.64368638 26.1675415-14.49002075 19.34647795-10.75639773 38.71102406-21.47571852 58.1875-31.99536133 7.13710347-3.85813683 14.23764569-7.77735041 21.32421875-11.72729492 6.32178954-3.52290953 12.65356661-7.02774399 18.98828125-10.52734375.62000885-.3425885 1.2400177-.685177 1.8788147-1.03814697 9.8694288-5.45017421 19.78622376-10.80724874 29.72592163-16.12835694 7.08514412-3.80543693 14.09847674-7.72138675 21.08276367-11.70849609 8.49193542-4.84439759 17.08407528-9.44581529 25.76953125-13.93286133 6.45536436-3.33881167 12.85858866-6.75925712 19.23046875-10.25463867 17.34142561-9.50639724 34.79256628-18.8068777 52.27807617-28.04492188 23.68469214-12.51328612 47.07438499-25.33345074 70.03442383-39.14257812 1.05525879-.63292969 2.11051758-1.26585938 3.19775391-1.91796875 11.12761758-6.68182356 22.1727066-13.43826438 32.88427734-20.77197266 2.1227081-1.44990474 4.25446753-2.88594688 6.38671875-4.32177734 16.31806289-11.02735548 32.17943863-22.64990089 47.53125-34.98828125.928125-.74507812 1.85625-1.49015625 2.8125-2.2578125 14.6664256-11.89515332 28.95683621-24.25544635 42.1875-37.7421875 2.7265512-2.74043856 5.46974788-5.46214828 8.234375-8.1640625 6.24191024-6.12710431 12.21179325-12.27648884 17.640625-19.15234375 2.22530004-2.81025943 4.54411129-5.52298819 6.875-8.24609375 27.07569261-32.59963608 47.63930275-71.30046252 54.25-113.4375.19207031-1.18851563.38414062-2.37703125.58203125-3.6015625 2.06490047-17.55057061 1.71650202-37.26223612-2.58203125-54.3984375-.19867676-.81936035-.39735352-1.6387207-.60205078-2.48291016-3.17146718-12.79752335-7.57550363-24.6992271-13.39794922-36.51708984-.31694824-.65162109-.63389648-1.30324219-.96044922-1.97460938-8.66381011-17.62404918-20.48941489-32.98874772-33.70361328-47.44335937-1.31593898-1.45457469-2.62356207-2.91712218-3.90112305-4.40551758-4.10015949-4.77265716-8.39377062-9.20153915-12.99731445-13.48901367-.69327393-.64735107-1.38654785-1.29470215-2.10083008-1.96166992-5.98330866-5.52079774-12.23010549-10.58985987-18.72338867-15.4934082-1.49429236-1.14152359-2.96139551-2.31840281-4.42578125-3.49804688-26.9182253-21.5053213-57.50548996-38.33581354-88.1875-53.734375-1.07024414-.53979492-2.14048828-1.07958984-3.24316406-1.63574219-29.00635995-14.55183352-59.13397779-26.67015094-89.75683594-37.36425781-1.20604889-.42221832-1.20604889-.42221832-2.4364624-.85296631-51.97779365-18.17969304-104.55432088-34.26269793-157.5635376-49.14703369-1.21417603-.34119873-2.42835205-.68239746-3.67932129-1.03393555-95.5279366-26.81273393-191.92339716-50.54349414-329.3206768-83.25727844-42.99627889-10.21148328-85.95589892-20.57654919-128.91047097-30.96188354-3.03514408-.7337543-6.07035661-1.46722484-9.10558319-2.20063782-86.46341981-20.89555866-172.87641089-42.2046445-447.98394775-147.54626465-.84884766-.65935547-.84884766-.65935547-1.71484375-1.33203125-12.144877-9.55617306-23.70120909-20.72501479-26.28515625-36.66796875-.86148147-12.70685174 4.62693059-23.92307849 12.87890625-33.40625 2.52791498-2.80181909 5.12980487-5.52617457 7.77294922-8.21923828 1.10979285-1.13149832 2.20215216-2.28006911 3.28955078-3.43310547 21.70257144-22.64388779 51.2035511-39.27066158 78.05859375-54.94140625.82113281-.48001465 1.64226562-.9600293 2.48828125-1.45458984 46.951939-27.35516353 95.90940248-51.61971167 145.48284912-73.82879639 4.72547295-2.12039532 9.43173211-4.27978904 14.13043213-6.45880127 22.2031662-10.2824944 44.64794607-19.95950189 67.16362-29.53608704 6.0401771-2.56983764 12.07347806-5.15469835 18.09809875-7.76078796 59.57829063-25.75737179 120.06254001-49.64944652 180.63671875-72.9609375.95783386-.36899414 1.91566772-.73798828 2.90252686-1.11816406 82.44198045-31.75401197 165.37429769-62.25138705 363.09747314-131.44433594.96617249-.33036255 1.93234497-.6607251 2.92779541-1.00109863 2.69015027-.91932826 5.38102807-1.83648856 8.07220459-2.75280762 1.20231766-.41110771 1.20231766-.41110771 2.42892456-.83052063 5.45584333-1.85307312 5.45584333-1.85307312 6.57107544-1.85307312z" fill="#199131" transform="translate(3262 1076)"/><path d="m0 0h1c2.08101266 23.67252539 4.00519411 47.35432498 5.78979492 71.05102539.33470709 4.44053015.67605319 8.88052597 1.01873303 13.32044697.26864701 3.49591052.53254925 6.99216799.79519558 10.48853397.12383844 1.63809511.24937014 3.27606331.37679672 4.91388321.7582768 9.77072569 1.18986515 19.4190555 1.01947975 29.22611046 1.40421959.45792938 1.40421959.45792938 2.83680725.92510986 43.70204662 14.85046995 85.48472155 50.24105603 119.16319275 81.07489014.49999512.45487793.99999023.90975586 1.51513672 1.37841797 9.63569792 8.76851441 19.21520258 17.61539849 27.68408203 27.53955078 2.17402327 2.51356703 4.42468613 4.94979354 6.67578125 7.39453125 4.4404761 4.88052328 8.69800027 9.86556705 12.80566406 15.02929688.94159269 1.18343773 1.88663876 2.3641312 2.83398438 3.54296874 1.08918499 1.3580633 2.17403527 2.71961449 3.25451755 4.0846119 1.189369 1.50166299 2.38519797 2.99824543 3.58916283 4.48823166 3.34635833 4.23992484 6.2019573 8.41028765 8.67647648 13.21771431 5.53716486 10.57889767 5.53716486 10.57889767 14.81103134 17.56435394 8.12212644 1.91578447 16.37210801 1.43553775 24.65025711 1.12751007 2.64705624-.01862964 5.29273797-.02856881 7.93971252-.02706909 6.21837821-.01526746 12.429099-.1418228 18.64500815-.31031692 7.08557977-.18650696 14.17054421-.2460506 21.25819665-.29592455 14.55688978-.10522705 29.10837524-.36668647 43.66098893-.73387694-2.21431425 3.34353329-4.39484632 6.62329604-6.9609375 9.70703125-.820448.9907251-.820448.9907251-1.6574707 2.00146484-.5796753.69432129-1.15935059 1.38864258-1.7565918 2.10400391-1.25137468 1.50905439-2.50267458 3.01817079-3.75390625 4.52734375-.9593042 1.15411377-.9593042 1.15411377-1.93798828 2.33154297-3.0927804 3.72555436-6.16892536 7.46476165-9.24560547 11.20361328-.58958496.71583252-1.17916992 1.43166504-1.78662109 2.16918945-3.14027902 3.81319595-6.27499716 7.63079444-9.40087891 11.45581055-3.71865066 4.55036365-7.45123942 9.08909694-11.1875 13.625-.58885986.71502686-1.17771973 1.43005371-1.78442383 2.16674805-3.14239009 3.81488108-6.28703036 7.62788573-9.43432617 11.4387207-.63333252.76747559-1.26666504 1.53495117-1.91918945 2.32568359-1.21394019 1.47098928-2.42858725 2.94139556-3.64404297 4.41113282-1.06943658 1.2963532-2.13394463 2.59679727-3.19213867 3.90234375-1.06355094 1.2955843-2.17222826 2.55409641-3.29541016 3.79833984-1.48406716 2.60684456-.76398535 3.95178921-.04296875 6.83203125.63829256 1.99671006 1.30949956 3.98304271 2.00390625 5.9609375 13.39207085 38.7421052 21.96759401 78.23752066 25.99609375 119.0390625.15686279 1.54989624.15686279 1.54989624.31689453 3.13110352 4.16065802 48.13784571 1.19941689 99.1017213-10.76611328 146.02807617-1.13296999 5.63931682-1.13296999 5.63931682.71508789 10.86376953.87579712.88196045.87579712.88196045 1.76928711 1.78173828.64517578.66644531 1.29035156 1.33289063 1.95507813 2.01953125.68384765.67675781 1.36769531 1.35351563 2.07226562 2.05078125 1.32554552 1.35026129 2.64976811 2.70182259 3.97265625 4.0546875.66128906.67047363 1.32257813 1.34094727 2.00390625 2.03173828 2.53474286 2.63509747 4.92571519 5.37903739 7.31518555 8.14550781 2.44575933 2.81329445 4.98080852 5.54001069 7.52075195 8.26806641 5.09408575 5.49543314 10.12684098 11.04204723 15.125 16.625 5.27028483 5.87802939 10.57232185 11.72500385 15.91357422 17.53857422 3.61622598 3.93935124 7.19524983 7.91068843 10.76611328 11.89111328 2.63111046 2.91459711 5.28684689 5.80569563 7.9453125 8.6953125 4.19686751 4.56355578 8.32752239 9.1782683 12.375 13.875-2.51945462 2.51945462-3.49198643 2.30540619-6.99031067 2.46156311-1.05570694.05178909-2.11141388.10357819-3.19911194.15693665-1.16314728.04734283-2.32629455.09468566-3.52468872.14346313-1.22121048.05720718-2.44242096.11441437-3.70063782.1733551-2.65942921.12320972-5.31874885.24293092-7.97857093.3567524-4.2067999.18004982-8.41292827.37332256-12.6190548.56838798-6.6554046.30705953-13.31117896.60507926-19.96716088.89933342-11.91156528.52679777-23.82252498 1.06694981-35.73321009 1.61326265-4.17987432.19133773-8.35992047.37812006-12.54016631.5611555-3.21505876.14156653-6.42990385.28786013-9.64479292.4332217-1.73561188.0740506-1.73561188.0740506-3.50628662.14959717-1.06416641.04896927-2.12833282.09793854-3.2247467.14839172-1.38294109.06108995-1.38294109.06108995-2.79382038.12341404-2.6373405.21607288-5.03464403.46533965-7.57744122 1.21116543-1.57582485 2.42529293-2.78447656 4.6508241-4 7.25-17.49806567 35.09773302-42.61079542 66.92620653-69 95.75-.45487793.49999512-.90975586.99999023-1.37841797 1.51513672-8.76851441 9.63569792-17.61539849 19.21520258-27.53955078 27.68408203-2.51356703 2.17402327-4.94979354 4.42468613-7.39453125 6.67578125-4.89531116 4.45393064-9.89694775 8.71818605-15.07763672 12.83642578-1.72718948 1.382485-3.4351328 2.78710233-5.14501953 4.19091797-12.75306688 10.31731765-26.41522991 19.27057847-40.09765625 28.2890625-.62346313.41099945-1.24692627.8219989-1.88928223 1.24545288-.60259643.39538971-1.20519287.79077942-1.8260498 1.19815064-.58791321.40110992-1.17582642.80221984-1.78155518 1.21548461-1.87030029 1.14950562-1.87030029 1.14950562-4.08776855 2.06243897-2.47894479 1.1259863-3.99862963 2.01665334-5.78253174 4.08706665-1.08090047 4.70816037-.78723534 9.36539378-.5625 14.15625.03758786 1.44147248.07140332 2.88304762.10169983 4.32469177.07191999 3.07530781.1684148 6.14845304.2848053 9.22239685.18169502 4.80586358.3103617 9.61213825.42770385 14.4199524.12071587 4.87421938.24332774 9.74827024.38389588 14.6219635.43009932 15.06756224.48325126 30.11857896.42689514 45.19224548-.00496799 2.27213456-.00953831 4.54427002-.01367188 6.81640625-.01041201 5.08206593-.02725612 10.16406345-.04882812 15.24609375-3.30453863-2.16940287-6.5438424-4.33094615-9.59375-6.84765625-.63035156-.51691406-1.26070312-1.03382812-1.91015625-1.56640625-.98806641-.81597656-.98806641-.81597656-1.99609375-1.6484375-5.12558554-4.2005259-10.27423687-8.36221846-15.5-12.4375-5.74040225-4.48161405-11.39694172-9.05957313-17.0390625-13.6640625-4.28545368-3.49123833-8.60423203-6.93412638-12.9609375-10.3359375-5.04846993-3.94195598-10.03732062-7.95060594-15-12-5.20364307-4.24084615-10.42207962-8.46099092-15.6875-12.625-.84594727-.67385742-.84594727-.67385742-1.70898438-1.36132812-5.47069398-4.84729965-5.47069398-4.84729965-12.17358398-6.23095704-.91402588.30631348-1.82805176.61262696-2.76977539.92822266-1.04720215.33475342-2.0944043.66950684-3.17333984 1.0144043-1.13002442.3793872-2.26004883.75877441-3.42431641 1.1496582-2.44702852.77130631-4.89634416 1.53538638-7.34765625 2.29296875-.6331311.19646622-1.26626221.39293243-1.9185791.59535217-37.89437859 11.63429676-79.08723364 17.7957441-118.7220459 17.93980408-1.29386627.00701431-2.58773254.01402863-3.92080688.02125549-4.15530894.01941101-8.31056217.02443411-12.46591187.02561951-.70752033.00044186-1.41504066.00088371-2.14400101.00133896-20.994755.00687971-41.71921345-.24805774-62.54349899-3.25133896-1.32545988-.18452041-2.65098316-.36858582-3.9765625-.55224609-4.15765989-.58149283-8.31008972-1.1946021-12.4609375-1.82275391-.66777466-.10023468-1.33554932-.20046936-2.02355957-.30374146-6.9962162-1.0647857-13.82525693-2.32189252-20.64831543-4.21188354-10.02487095-3.27778832-10.02487095-3.27778832-20.08105469-2.16113281-3.99218558 2.82937442-6.81885956 6.43988523-9.61035156 10.4165039-1.51749803 2.06925933-3.25940204 3.60316702-5.26171875 5.19775391-4.07158981 3.45181292-7.76803973 7.24119413-11.51586914 11.03540039-3.30762849 3.33269023-6.71819693 6.45418077-10.29663086 9.49584961-2.81893956 2.52875461-5.46438576 5.21271246-8.125 7.90625-3.22398087 3.26382615-6.43517847 6.46830141-9.9375 9.4375-3.72207668 3.1625996-7.1311634 6.59220414-10.5625 10.0625-4.0032593 4.04871214-8.04172189 7.93408181-12.39453125 11.609375-3.45725562 3.10447443-6.67590012 6.45536136-9.89477539 9.80493164-2.54999617 2.6107204-4.78439547 4.73964776-8.21069336 6.08569336-1.6466358-1.6466358-1.30177876-3.63443488-1.46192932-5.90802002-.11565308-1.59411964-.11565308-1.59411964-.23364258-3.22044373-.08056137-1.17609329-.16112274-2.35218658-.24412537-3.56391906-.08792816-1.23081803-.17585632-2.46163605-.26644897-3.72975159-.24093832-3.38631067-.47772823-6.77286341-.71260953-10.15959644-.24647787-3.54131395-.49789748-7.08227712-.74870944-10.62328625-.42083966-5.95179059-.83816833-11.90381903-1.25318909-17.85601807-.47963084-6.87855456-.96363317-13.75678981-1.45026165-20.63485264-.51787511-7.31983213-1.03305373-14.63985197-1.54716605-21.95994926-.14825161-2.1087547-.29694785-4.21747768-.44571996-6.32619572-.2774758-3.93585098-.55186991-7.8719135-.82589531-11.80800628-.0825856-1.16799637-.1651712-2.33599274-.2502594-3.53938294-.07428222-1.07402572-.14856445-2.14805145-.22509765-3.25462341-.09760542-1.39595083-.09760542-1.39595083-.19718266-2.82010269-.13467251-2.53761782-.16236902-5.05521632-.13776302-7.5958519-.65226562-.24234375-1.30453125-.4846875-1.9765625-.734375-23.22060737-9.72025425-44.75742413-24.52927752-65.0234375-39.265625-.59345215-.43151367-1.1869043-.86302734-1.79833984-1.30761719-3.4389826-2.51521609-6.82866976-5.08956628-10.20166016-7.69238281-.53222168-.40750488-1.06444336-.81500977-1.61279297-1.23486328-18.61396049-14.27266824-35.7782027-30.09859643-52.38720703-46.64013672-.78922852-.78455566-1.57845703-1.56911133-2.39160156-2.37744141-4.74171443-4.75482422-9.24248749-9.64729552-13.60839844-14.74755859-.9494375-1.08298196-1.8999066-2.16506067-2.8515625-3.24609375-7.80051176-8.94269478-15.07254627-18.23003726-22.1484375-27.75390625-.54833496-.73798828-1.09666992-1.47597656-1.66162109-2.23632812-6.11555099-8.26901521-12.03260762-16.64788653-17.65087891-25.26367188-.47453613-.72445312-.94907227-1.44890625-1.43798828-2.1953125-3.24951172-5.05669417-3.24951172-5.05669417-3.24951172-7.3046875-.58530487.0154612-1.17060974.03092239-1.77365112.04685211-14.26472364.37673914-28.52947761.75231308-42.79426575 1.12660217-6.89843735.18103374-13.79686405.36245676-20.69526672.54480744-6.65893104.17601944-13.31789014.35093918-19.97686768.52519226-2.53886877.06661657-5.07772795.1335999-7.61657715.20095825-3.55948447.09437383-7.11900101.18743653-10.67852783.28019715-1.56985909.04207832-1.56985909.04207832-3.1714325.08500671-5.43347264.14014993-10.85813363.21887577-16.29341125.19038391 2.32277514-4.10306004 5.06348259-7.76361919 8-11.4375.99354739-1.25386044 1.98703539-2.50776796 2.98046875-3.76171875.50450684-.63470215 1.00901367-1.2694043 1.52880859-1.92333984 2.27741763-2.8682184 4.54089374-5.74731624 6.80322266-8.62744141.66805664-.8496936.66805664-.8496936 1.34960938-1.71655273 3.7955585-4.83186342 7.56810112-9.68146556 11.33789062-14.53344727 5.53450443-7.12329278 11.0930816-14.22696692 16.67333984-21.31445312 2.27752224-2.89363517 4.55188284-5.78975375 6.82666016-8.68554688.90754493-1.15495354 1.81509702-2.30990145 2.72265625-3.46484375 1.92508488-2.45004573 3.84945587-4.90065033 5.7734375-7.3515625.49242188-.62712891.98484375-1.25425781 1.4921875-1.90039063.93638289-1.19256311 1.87259298-2.38526194 2.80859375-3.578125 1.96256088-2.49915229 3.8454142-4.84144809 6.14453125-7.04492187 1.75203912-2.99032241 1.71329823-3.46227621 1.04296875-6.69921875-.46730956-1.66162123-.96483457-3.31489951-1.484375-4.9609375-.27521484-.93038086-.55042969-1.86076172-.83398438-2.81933594-.6174808-2.06876162-1.24521825-4.13448142-1.88159179-6.19750976-12.76498361-41.44025242-19.29555163-84.65407093-20.28442383-127.9831543-.03287109-1.16644043-.03287109-1.16644043-.06640625-2.35644531-.84452886-32.80994611 1.76513868-67.14442987 8.93505859-99.19189453 1.02578756-4.76844383 1.39100054-8.62594772.13134766-13.45166016-1.53473302-2.21732723-1.53473302-2.21732723-3.625-3.9375-2.7575651-2.55184977-5.36317153-5.08664227-7.8125-7.9375-2.64937301-3.07785931-5.33961028-6.111853-8.0625-9.125-2.67048344-2.95869751-5.32298058-5.92926472-7.9375-8.9375-3.65307956-4.19553221-7.40755549-8.29623553-11.15625-12.40625-2.55773771-2.82347669-5.06394969-5.68681002-7.5625-8.5625-2.25251457-2.55794027-4.54692092-5.0755398-6.84375-7.59375-3.43264761-3.76350521-6.8155501-7.56129351-10.15625-11.40625-2.25251457-2.55794027-4.54692092-5.0755398-6.84375-7.59375-6.29185144-6.91338692-6.29185144-6.91338692-8.875-9.8125-.51304687-.57363281-1.02609375-1.14726562-1.5546875-1.73828125-2.04037759-2.5327075-3.77814971-5.23704839-5.5703125-7.94921875 10.14559847-.46358709 20.29144476-.92153129 30.4375-1.375.75886002-.03391972 1.51772003-.06783943 2.29957581-.10278702 30.74822748-1.37228272 61.50039589-2.51731693 92.26292419-3.52221298.27368408-.87350098.54736816-1.74700195.8293457-2.64697266 17.82553644-51.05649999 59.82705083-97.99004463 97.4206543-135.72802734.83982422-.84449707 1.67964844-1.68899414 2.54492188-2.55908203 4.90846085-4.89585019 9.93895367-9.55950119 15.20507812-14.06591797 1.20327454-1.05694344 2.40512236-2.11551355 3.60546875-3.17578125 7.31808558-6.42403454 14.72426908-12.61516438 22.53515625-18.4375 1.33602299-.9964037 2.66900197-1.99689382 4-3 9.72079365-7.32365916 19.55781616-14.35814885 29.83203125-20.88671875.63365479-.41910645 1.26730957-.83821289 1.92016602-1.27001953 2.10717773-1.22998047 2.10717773-1.22998047 4.77490234-2.23730469 3.13004125-1.3399713 5.03860254-2.45835799 7.33227539-4.99267578 1.62537121-5.98109396 1.43810316-11.96157664 1.4375-18.125.03687753-1.94013205.07933203-3.8801643.12670898-5.82006836.1073119-4.55999218.18983906-9.11975779.26293946-13.68041992.27034972-14.7652018.87955921-29.52262856 1.42162037-44.27981949.21115056-5.76398321.41302291-11.52818778.60578441-17.29281521.12225756-3.65128517.24761763-7.30246056.37334824-10.95362758.05854647-1.72134231.11574026-3.4427312.17151642-5.1641655.07734804-2.37864675.15979103-4.75706639.24340439-7.13549996.02132208-.69530885.04264417-1.39061771.06461238-2.10699653.1311813-3.57875759.47109847-6.95363984 1.29256535-10.44158745 4.58331199 2.88349508 8.45450565 6.08905668 12.375 9.8125 1.14902336 1.07628597 2.29875991 2.15181107 3.44921875 3.2265625.82250244.77005371.82250244.77005371 1.66162109 1.55566406 2.46881095 2.29127311 5.01036811 4.4946239 7.55712891 6.69824219 2.34262275 2.04336556 4.64976547 4.12383984 6.95703125 6.20703125 5.32334693 4.79907792 10.68863339 9.5407795 16.15234375 14.1796875 6.58083804 5.59472989 13.04531523 11.27766362 19.3671875 17.1640625 3.45416249 3.21594439 6.95482467 6.36142955 10.5234375 9.44921875 2.34262275 2.04336556 4.64976547 4.12383984 6.95703125 6.20703125.84304688.75023438 1.68609375 1.50046875 2.5546875 2.2734375 1.56341098 1.42355312 3.09391955 2.88467295 4.578125 4.390625.65742188.64710937 1.31484375 1.29421875 1.9921875 1.9609375.55945312.58007812 1.11890625 1.16015625 1.6953125 1.7578125 6.42232598 3.29172981 16.58195158-1.63057911 22.9921875-3.5078125 21.77724514-6.17021946 43.96518169-10.53573828 66.375-13.6875 1.04671875-.14727539 2.0934375-.29455078 3.171875-.44628906 3.54223044-.463967 7.08783747-.86899363 10.640625-1.24121094.80898743-.08580322 1.61797485-.17160645 2.45147705-.26000977 17.34676095-1.78231791 34.61982893-2.14206684 52.04852295-2.11499023.68567928.00023918 1.37135857.00047836 2.07781601.00072479 33.05167509.01453278 64.95217851 2.89585153 97.41437149 9.10474396 2.33551259.42551589 4.67141203.84891776 7.0078125 1.26953125 1.45623779.29221436 1.45623779.29221436 2.94189453.59033203 4.54667468.8023011 4.54667468.8023011 8.8203125-.53100586 1.64176949-1.41255974 2.98614149-2.88851839 4.36279297-4.55932617.93687074-1.05496369 1.8770328-2.10701285 2.8203125-3.15625.48243164-.5465625.96486328-1.093125 1.46191406-1.65625 2.34131216-2.48055635 4.93024613-4.63981645 7.51806641-6.85742188 3.52465312-3.10906092 6.78505148-6.47617148 10.07470703-9.83007812 4.51975312-4.60802955 9.10932227-9.01017797 14-13.22265625 3.48971278-3.1012096 6.7321662-6.44568507 10-9.77734375 4.51975312-4.60802955 9.10932227-9.01017797 14-13.22265625 3.48971278-3.1012096 6.7321662-6.44568507 10-9.77734375 4.62639671-4.71675602 9.31633573-9.25502862 14.3359375-13.5546875 1.26572714-1.09934048 2.4786059-2.2598559 3.6640625-3.4453125zm-234.0625 140.75c-1.16477875.06435242-1.16477875.06435242-2.35308838.13000488-57.35657471 3.26800617-112.55604856 18.1297021-164.58441162 42.11999512-.9266748.42603516-1.85334961.85207031-2.80810547 1.29101562-45.04250892 20.97235508-85.21961098 51.82582385-120.34283447 86.68469239-1.00722238.9991806-2.01592037 1.9968764-3.02624512 2.99291992-5.99962985 5.92378656-11.63486918 12.0089439-16.87945556 18.6204834-1.84126918 2.28423783-3.76147358 4.44772535-5.75585938 6.59838867-17.59251033 19.72702234-32.27453237 43.25141436-44.87890625 66.40966797-1.26438567 2.32165741-2.55101384 4.62983845-3.83984375 6.93798828-29.87304205 54.25739795-46.03896524 118.74580158-47.46875 180.46484375-.02191406.94037109-.04382812 1.88074219-.06640625 2.84960938-1.96159531 101.80679658 32.77190821 201.67981815 106.06640625 288.15039062.79019531.90363281 1.58039062 1.80726563 2.39453125 2.73828125 5.98004781 6.67562688 12.26822988 13.05188176 18.58016968 19.41165161.99960878 1.00764869 1.99773262 2.01677315 2.99420166 3.02752686 6.65962118 6.74488729 13.61650177 12.90569895 21.03109741 18.82254028 1.08985359.92334818 2.17448326 1.85296 3.25 2.79296875 79.65834173 69.36159585 190.7290024 105.21073809 317.90989685 99.72990417 50.99140786-3.67760083 101.51671814-16.80128453 147.91627503-38.17619323 2.76505567-1.27355103 5.53892879-2.52584497 8.31445312-3.77636719 13.74141841-6.27844002 26.70390943-13.73406068 39.609375-21.5703125.87495117-.52916016 1.74990234-1.05832031 2.65136719-1.60351562 11.2799868-6.85774401 21.93591593-14.28922641 32.34863281-22.39648438 1.20417227-.92611267 2.40859475-1.8519001 3.61328125-2.77734375 21.94864375-16.95452326 43.59829605-35.88461632 61.38671875-57.22265625.82628906-.96035156 1.65257813-1.92070313 2.50390625-2.91015625 52.90404347-61.57024745 86.82774097-136.79185547 98.49609375-217.08984375.2477417-1.64572998.2477417-1.64572998.50048828-3.32470703 5.18474084-35.93931526 4.90240968-74.78423717-.50048828-110.67529297-.25740967-1.77141357-.25740967-1.77141357-.52001953-3.57861328-8.85009662-59.53054269-30.45817074-117.06339311-63.47998047-167.42138672-.47002441-.71687988-.94004883-1.43375977-1.42431641-2.17236328-11.86533362-17.94321293-25.14148543-35.06870026-39.80224609-50.80810547-2.07062462-2.22854405-4.06616035-4.51105007-6.05078125-6.81640625-4.02596589-4.61901827-8.31798918-8.94544359-12.66015625-13.265625-1.13985352-1.1456543-1.13985352-1.1456543-2.30273438-2.31445312-4.75641969-4.74829601-9.64914535-9.25995628-14.75976562-13.62304688-1.00928217-.87741143-2.01840959-1.75500092-3.02734375-2.6328125-18.67333746-15.99139503-38.59625585-30.96188574-59.94677734-43.19824219-2.23517713-1.28971174-4.45238278-2.60778412-6.67041016-3.92675781-59.99616333-35.36720605-128.16678849-54.39980101-197.48046875-58.4296875-.7312207-.04297211-1.46244141-.08594421-2.21582031-.13021851-15.60780529-.89613877-31.11577627-.79541658-46.72167969.06771851z" fill="#208540" transform="translate(4206 24)"/><path d="m0 0c1.9172531.07538427 3.83139088.22980428 5.74139404.41264343 1.26009731.11796527 2.52019461.23593054 3.81847668.35747052 1.42113292.13862859 2.84225639.27735405 4.26337147.41616535 1.50127239.14266196 3.0025902.28484672 4.50394916.42659473 4.17988806.39605858 8.35909186.79897942 12.53822732 1.20289135 4.57577085.44103772 9.15214015.87578225 13.72843814 1.31130982 8.08220412.77005778 16.16401354 1.54415652 24.24559021 2.32077026 11.90852228 1.14431869 23.81766091 2.28211656 35.72694957 3.41842806 24.00946555 2.29106512 48.018161 4.59014423 72.0267034 6.8908595 1.37168381.13144707 2.74336765.26289385 4.11505152.39434036 1.38939164.1331435 2.77878321.2662878 4.1681747.39943288 16.93273352 1.62264129 33.86559307 3.24396596 50.79847636 4.86504346 2.47495585.2369412 4.94991126.47388705 7.42486665.71083305 18.46125593 1.76741584 36.92256033 3.53432433 55.38394284 5.30041755 1.67831727.16055725 3.35663454.32111454 5.03495181.48167187 6.70542928.6414741 13.41085894 1.28294417 20.11629641 1.92433268 19.21497312 1.83796534 38.42979215 3.67752087 57.64427518 5.52060319 13.56286929 1.3009709 27.12588169 2.60043982 40.68904478 3.89834426 8.1689925.78178468 16.33784789 1.56497271 24.50652575 2.35003833 6.14570197.59050154 12.29163594 1.17855417 18.43766326 1.7656593 2.50463385.23965722 5.00918968.48013152 7.51366139.72147727 3.39816563.32735546 6.7965952.65181886 10.19510889.97553789 1.48355095.14397579 1.48355095.14397579 2.99707263.29086018.90727611.08582022 1.81455221.17164043 2.74932152.26006126.77975133.07475798 1.55950265.14951595 2.3628828.22653932 4.38474569.30462019 7.41183382.44374803 11.26958352-1.84232587v5c-.66 0-1.32 0-2 0-.25313965 1.22638184-.5062793 2.45276367-.76708984 3.71630859-1.34477374 6.03526469-3.1503206 11.91313932-4.95947266 17.82275391-.37528839 1.23561172-.75057678 2.47122345-1.13723755 3.74427795-.81796517 2.69297197-1.63804974 5.38528586-2.45980835 8.07710267-1.33193235 4.36298787-2.65921248 8.72738317-3.98596191 13.09194946-1.9076696 6.27407875-3.8174657 12.54750675-5.72851563 18.82055664-2.93270479 9.62746187-5.85828138 19.25708172-8.78222656 28.88720703-.98224661 3.23486708-1.96451176 6.46972853-2.94677734 9.70458984-.36706275 1.20886242-.36706275 1.20886242-.74154091 2.44214631-2.78222231 9.16243844-5.56645855 18.32426476-8.35074425 27.48607635-1.02540012 3.37418331-2.05078991 6.74836976-3.07617188 10.12255859-.2536136.83455719-.50722721 1.66911438-.76852607 2.52896119-2.77100747 9.11861534-5.5413328 18.23743789-8.31155205 27.35629272-.24711731.81344376-.49423462 1.62688751-.74884033 2.46498108-1.74519948 5.74473943-3.49037076 11.48948743-5.23553467 17.23423767-1.99477179 6.56641229-3.98955878 13.13281996-5.984375 19.69921875-.24703674.81318192-.49407349 1.62636383-.74859619 2.46418762-3.54573696 11.67158882-7.09216714 23.34296684-10.63899231 35.01422501-2.29282933 7.54491048-4.58548972 15.08987229-6.8780365 22.63486862-.37638611 1.2387236-.37638611 1.2387236-.76037598 2.50247192-7.40610098 24.37469425-14.80147955 48.75261295-22.18560791 73.13397217-5.04962266 16.67292963-10.10620357 33.34372817-15.17120361 50.01199341-.40637569 1.33737087-.40637569 1.33737087-.820961 2.70175934-2.67052748 8.78847672-5.34142868 17.57683966-8.01361275 26.36481285-.74447122 2.44869007-1.48856728 4.89749394-2.23265647 7.34630012-.94030628 3.09407855-1.88268859 6.18751302-2.8267212 9.28045655-1.91920463 6.29506309-3.8242621 12.59076675-5.62704467 18.92044067-.2714383.94356354-.54287659 1.88712708-.82254029 2.85928345-.47165963 1.65008164-.93364146 3.30298424-1.38250732 4.95941162-1.51292987 5.27528651-3.3974611 8.30341359-8.1098938 11.12612915-.92296875.48855469-1.8459375.97710938-2.796875 1.48046875-1.87287058 1.15282062-3.72530245 2.33554298-5.58032227 3.5168457-2.07053048 1.31203645-4.15538025 2.59841478-6.24389648 3.8815918-3.92910526 2.42949524-7.78076473 4.96055478-11.61328125 7.5390625-7.3683879 4.95164966-14.81635142 9.77332916-22.27636719 14.58544922-4.03825049 2.60907897-8.06827141 5.23080806-12.09863281 7.85205078-.83619873.54374268-1.67239746 1.08748535-2.53393555 1.64770508-1.70177648 1.10663572-3.40351789 2.21332536-5.10522461 3.32006836-4.18229847 2.71981625-8.36535288 5.43846934-12.54833984 8.15722656-1.66667039 1.08332761-3.33333705 2.16666095-5 3.25-9.99999998 6.49999999-9.99999998 6.49999999-12.49926758 8.12451172-1.66912294 1.08493806-3.33823098 2.16989905-5.00732422 3.25488281-4.12896462 2.68396785-8.2581751 5.36755578-12.38793945 8.05029297-8.87388015 5.76519602-17.74272373 11.53801098-26.60546875 17.3203125-9.67598947 6.31288484-19.35987859 12.61350298-29.04833984 18.90722656-4.15105399 2.69682098-8.30131254 5.39486558-12.45166016 8.09277344-1.66666295 1.08333905-3.33332961 2.16667239-5 3.25-.825.53625-1.65 1.0725-2.5 1.625-27.50000001 17.87500001-27.50000001 17.87500001-29.99926758 19.49951172-1.66912294 1.08493806-3.33823098 2.16989905-5.00732422 3.25488281-4.12896462 2.68396785-8.2581751 5.36755578-12.38793945 8.05029297-8.87388015 5.76519602-17.74272373 11.53801098-26.60546875 17.3203125-9.67598947 6.31288484-19.35987859 12.61350298-29.04833984 18.90722656-4.15105399 2.69682098-8.30131254 5.39486558-12.45166016 8.09277344-1.66666295 1.08333905-3.33332961 2.16667239-5 3.25-.825.53625-1.65 1.0725-2.5 1.625-47.50000004 30.87500003-47.50000004 30.87500003-49.99926758 32.49951172-1.66912294 1.08493806-3.33823098 2.16989905-5.00732422 3.25488281-4.12896462 2.68396785-8.2581751 5.36755578-12.38793945 8.05029297-8.87388015 5.76519602-17.74272373 11.53801098-26.60546875 17.3203125-9.67598947 6.31288484-19.35987859 12.61350298-29.04833984 18.90722656-4.15105399 2.69682098-8.30131254 5.39486558-12.45166016 8.09277344-1.66666295 1.08333905-3.33332961 2.16667239-5 3.25-.825.53625-1.65 1.0725-2.5 1.625-27.49999999 17.87499999-27.49999999 17.87499999-29.99926758 19.49951172-1.66912294 1.08493806-3.33823098 2.16989905-5.00732422 3.25488281-4.12896462 2.68396785-8.2581751 5.36755578-12.38793945 8.05029297-8.87388015 5.76519602-17.74272373 11.53801098-26.60546875 17.3203125-9.67598947 6.31288484-19.35987859 12.61350298-29.04833984 18.90722656-4.15105399 2.69682098-8.30131254 5.39486558-12.45166016 8.09277344-1.66666295 1.08333905-3.33332961 2.16667239-5 3.25-.825.53625-1.65 1.0725-2.5 1.625-27.49999999 17.87499999-27.49999999 17.87499999-29.99926758 19.49951172-1.66912294 1.08493806-3.33823098 2.16989905-5.00732422 3.25488281-4.12896462 2.68396785-8.2581751 5.36755578-12.38793945 8.05029297-12.71158233 8.25848828-25.41059547 16.53616479-38.10546875 24.8203125-1.265717-3.58715329-.72054646-5.81687139.38232422-9.40966797.50309692-1.66614601.50309692-1.66614601 1.01635742-3.36595154.38148193-1.22646743.76296387-2.45293487 1.15600586-3.71656799.40401286-1.32536282.80705942-2.65102051 1.20922852-3.97694397.88500409-2.91122056 1.77623065-5.82043967 2.6720581-8.72834778 1.47601156-4.79240195 2.93759467-9.58912986 4.39654541-14.38674927.51863388-1.70509714 1.03728034-3.41019046 1.55593872-5.11528015.26346348-.86620153.52692696-1.73240307.79837418-2.62485313.82815807-2.72098453 1.6576592-5.44155665 2.48745346-8.16204262 4.37781665-14.35845608 8.70563729-28.73157987 13.01321411-43.11125183.32975138-1.10071964.65950275-2.20143929.9992466-3.33551407 1.70104356-5.67875362 3.40149885-11.35768322 5.10173607-17.03667831 3.53909174-11.81986459 7.08362093-23.63809846 10.62948608-35.45593262.35613058-1.18694332.71226116-2.37388664 1.07918358-3.59679794 7.2071154-24.01701171 14.45043763-48.02303351 21.70334816-72.02624893 10.59717268-35.07096288 21.19235516-70.14258423 31.74289608-105.22760773 1.68731609-5.61097655 3.37594919-11.22154744 5.06816959-16.83104706 1.56539169-5.18930651 3.12690508-10.3797634 4.68530846-15.57117271.57219166-1.9036833 1.14579721-3.80694226 1.72089004-5.70975113.78253584-2.59002278 1.55999617-5.18151482 2.33614159-7.77345848.23033023-.75802729.46066046-1.51605458.69797039-2.29705239.87954268-2.95352718 1.54812336-5.44079865 1.54812336-8.54108238-.60328125.27714844-1.2065625.55429688-1.828125.83984375-.79921875.36222656-1.5984375.72445312-2.421875 1.09765625-1.18335938.53947266-1.18335938.53947266-2.390625 1.08984375-8.63860791 3.56128041-20.5258252 3.34214299-29.359375.41015625-11.25402896-4.86706867-18.44038542-13.1880942-23.23828125-24.26171875-3.71572184-10.61362599-2.2890267-21.75939017 2.45703125-31.73828125 4.09845283-7.46829182 9.73273526-12.73849018 16.78125-17.4375-10.21035008-1.55600392-20.42444873-2.71864756-30.7013855-3.71437073-1.64395301-.161616-3.28787916-.32350552-4.93178093-.48564189-4.47908039-.44098423-8.95852694-.87814205-13.43804682-1.31463618-4.84543678-.47284461-9.69051812-.94930572-14.53564405-1.42532312-8.38367958-.82318408-16.76757555-1.6441331-25.15162277-2.46356392-12.13046601-1.18561657-24.26057209-2.37488276-36.39059116-3.56506216-19.69454695-1.93232031-39.38934836-3.86203398-59.08432721-5.78994692-19.10523165-1.87019201-38.2103947-3.74108118-57.31542968-5.61328125-1.1776359-.11540198-2.35527179-.23080396-3.56859361-.34970296-12.85702967-1.25994846-25.71403046-2.52019126-38.5709957-3.78079688-1.12988905-.11078337-2.25977809-.22156673-3.42390619-.33570717-4.51670861-.44285862-9.03341685-.88572094-13.55012134-1.32862152-13.21790669-1.29611941-26.43590262-2.59132022-39.65406222-3.88485801-8.28608726-.81090519-16.57210686-1.62249915-24.85807368-2.43463416-4.78066297-.46853315-9.5613612-.93669908-14.34215231-1.40392309-4.37681637-.42774509-8.75353584-.8564679-13.13018097-1.2859615-1.58244905-.15511177-3.16493383-.30985958-4.74745783-.46420475-14.57977981-1.42231974-14.57977981-1.42231974-21.60562803-2.35976379 0-.66 0-1.32 0-2 1.65454102-1.35009766 1.65454102-1.35009766 4.00390625-2.9140625.87422607-.58797363 1.74845215-1.17594727 2.64916992-1.78173828.96010987-.63663574 1.92021973-1.27327149 2.90942383-1.92919922 2.02936995-1.36350621 4.05799263-2.72812517 6.0859375-4.09375 1.5773291-1.05960938 1.5773291-1.05960938 3.18652344-2.140625 4.98570595-3.37200477 9.91912722-6.817762 14.85253906-10.265625 9.35090731-6.52262429 18.74472686-12.97939901 28.16162109-19.40625 10.85882242-7.41505967 21.66198265-14.90840323 32.4506836-22.42504883 6.808099-4.738916 13.6433097-9.43600693 20.49633789-14.10961914 6.26014983-4.27493616 12.48517275-8.59909946 18.70385742-12.93408203 7.7392153-5.39492918 15.50282465-10.75107599 23.296875-16.06640625 6.25989259-4.27479243 12.48468103-8.59877897 18.703125-12.93359375 7.7392153-5.39492918 15.50282465-10.75107599 23.296875-16.06640625 6.25989259-4.27479243 12.48468103-8.59877897 18.703125-12.93359375 7.7392153-5.39492918 15.50282465-10.75107599 23.296875-16.06640625 6.25989305-4.27479274 12.48465169-8.59882044 18.703125-12.93359375 9.41484669-6.56214736 18.87022921-13.06208679 28.34912109-19.53125 10.85882242-7.41505967 21.66198265-14.90840323 32.4506836-22.42504883 6.808099-4.738916 13.6433097-9.43600693 20.49633789-14.10961914 6.26014983-4.27493616 12.48517275-8.59909946 18.70385742-12.93408203 7.7392153-5.39492918 15.50282465-10.75107599 23.296875-16.06640625 6.25989259-4.27479243 12.48468103-8.59877897 18.703125-12.93359375 7.7392153-5.39492918 15.50282465-10.75107599 23.296875-16.06640625 6.25989259-4.27479243 12.48468103-8.59877897 18.703125-12.93359375 7.7392153-5.39492918 15.50282465-10.75107599 23.296875-16.06640625 6.25989305-4.27479274 12.48465169-8.59882044 18.703125-12.93359375 9.41484669-6.56214736 18.87022921-13.06208679 28.34912109-19.53125 10.85882242-7.41505967 21.66198265-14.90840323 32.4506836-22.42504883 6.808099-4.738916 13.6433097-9.43600693 20.49633789-14.10961914 6.26014983-4.27493616 12.48517275-8.59909946 18.70385742-12.93408203 7.7392153-5.39492918 15.50282465-10.75107599 23.296875-16.06640625 7.23471593-4.94048554 14.42197432-9.94815862 21.60791016-14.95922852 7.27721179-5.07014815 14.58605822-10.09219543 21.92138672-15.07788085.73541015-.50080079 1.47082031-1.00160157 2.22851562-1.51757813.64437012-.43755615 1.28874023-.8751123 1.95263672-1.32592773 1.46999893-.97356688 1.46999893-.97356688 2.49267578-2.05297852zm4.96875 37.28125c-1.07411133.75603516-1.07411133.75603516-2.16992188 1.52734375-.75861328.55816406-1.51722656 1.11632813-2.29882812 1.69140625-1.68749611 1.19792214-3.37499629 2.39583855-5.0625 3.59375-1.32644531.95519531-1.32644531.95519531-2.6796875 1.9296875-4.71504881 3.37934093-9.49090884 6.67099878-14.2578125 9.9765625-1.95844335 1.36442543-3.91677757 2.72900753-5.875 4.09375-5.78475265 4.02417575-11.60008483 8.00235377-17.421875 11.97265625-6.25989305 4.27479274-12.48465169 8.59882044-18.703125 12.93359375-9.41484669 6.56214736-18.87022921 13.06208679-28.34912109 19.53125-10.85882242 7.41505967-21.66198265 14.90840323-32.4506836 22.42504883-6.808099 4.738916-13.6433097 9.43600693-20.49633789 14.10961914-6.26014983 4.27493616-12.48517275 8.59909946-18.70385742 12.93408203-7.7392153 5.39492918-15.50282465 10.75107599-23.296875 16.06640625-6.25989259 4.27479243-12.48468103 8.59877897-18.703125 12.93359375-7.7392153 5.39492918-15.50282465 10.75107599-23.296875 16.06640625-6.25989259 4.27479243-12.48468103 8.59877897-18.703125 12.93359375-7.7392153 5.39492918-15.50282465 10.75107599-23.296875 16.06640625-6.25989305 4.27479274-12.48465169 8.59882044-18.703125 12.93359375-9.41484669 6.56214736-18.87022921 13.06208679-28.34912109 19.53125-10.85882242 7.41505967-21.66198265 14.90840323-32.4506836 22.42504883-6.808099 4.738916-13.6433097 9.43600693-20.49633789 14.10961914-6.26014983 4.27493616-12.48517275 8.59909946-18.70385742 12.93408203-7.7392153 5.39492918-15.50282465 10.75107599-23.296875 16.06640625-6.25989259 4.27479243-12.48468103 8.59877897-18.703125 12.93359375-7.7392153 5.39492918-15.50282465 10.75107599-23.296875 16.06640625-6.25989259 4.27479243-12.48468103 8.59877897-18.703125 12.93359375-7.7392153 5.39492918-15.50282465 10.75107599-23.296875 16.06640625-6.25989305 4.27479274-12.48465169 8.59882044-18.703125 12.93359375-7.12602793 4.96684088-14.26528163 9.91256545-21.4375 14.8125-.76441406.52255371-1.52882813 1.04510742-2.31640625 1.58349609-3.7881354 2.58807103-7.57995777 5.170604-11.375 7.74853516-1.45707565.99342446-2.91410886 1.98691118-4.37109375 2.98046875-.99761353.67446167-.99761353.67446167-2.01538086 1.36254883-2.91495433 1.99113921-5.54285072 3.96741934-7.98461914 6.51245117 2.65608787 1.32804393 4.98564613 1.39533272 7.94808674 1.68806648 1.27582138.12800999 2.55164277.25601998 3.8661254.38790906 1.42913504.13930944 2.85827753.27854245 4.28742665.41770732 1.50787297.14973273 3.0157117.29981061 4.52351875.45020569 4.15845281.41373844 8.31738571.82246323 12.47641271 1.23038375 4.479592.44021693 8.95873261.88498278 13.43793475 1.32914567 8.78155052.86999944 17.56353201 1.73557199 26.34568743 2.5994419 7.13627725.70199691 14.27242557 1.40528993 21.40848395 2.10950814 20.2160403 1.99487988 40.43239339 3.9865451 60.64917234 5.97392561 1.09079596.10722916 2.18159191.21445832 3.3054423.32493685 1.09212245.10735894 2.1842449.21471788 3.30946197.32533012 17.70245698 1.74039888 35.40416075 3.48833219 53.10553338 5.2397224 18.15996831 1.79668173 36.32046998 3.58788142 54.48155023 5.37328945 10.20232385 1.00309674 20.40441281 2.00845843 30.60593588 3.01966966 8.68574972.86091458 17.37198284 1.71673169 26.05889061 2.56588496 4.43432145.43360641 8.86837242.8696149 13.30182525 1.31202184 4.05632259.40471259 8.11325104.80263675 12.17077693 1.19509647 1.46999107.14339806 2.93973967.28930787 4.40921046.4379429 1.99362927.201282 3.98825539.39261685 5.98291411.58342753 1.66325757.16379565 1.66325757.16379565 3.3601163.33090031 6.40712669.22790425 10.11155835-2.06550827 15.19205636-5.72264111 1.43598763-1.01052745 2.87252984-2.02026719 4.30957031-3.02929688.73835083-.52166748 1.47670166-1.04333496 2.23742676-1.58081054 3.53186956-2.47747899 7.10880983-4.88683449 10.68737793-7.29614258 1.45731409-.98382939 2.91458882-1.9677171 4.37182617-2.95166016.73946869-.49880676 1.47893738-.99761352 2.24081421-1.51153564 3.21234077-2.16689132 6.42363825-4.33532679 9.63502503-6.50363159 1.66064394-1.12123099 3.32133936-2.24238575 4.98208618-3.36346436 8.16921373-5.5147771 16.3334777-11.03685668 24.49681091-16.56033325 1.40567558-.95101615 2.81135592-1.90202526 4.21704102-2.85302734 4.19856431-2.8405423 8.39702225-5.68124179 12.59545898-8.52197266 5.60407197-3.79180664 11.20820701-7.58352002 16.8125-11.375 1.04503189-.70700043 1.04503189-.70700043 2.11117554-1.42828369 11.96978561-8.0977004 23.94369296-16.18929062 35.9187622-24.27917481 11.0552075-7.4685465 22.10772118-14.94105775 33.15756226-22.4175415 11.83027231-8.00453492 23.66394035-16.00402521 35.5-24 11.89825437-8.03809045 23.79457671-16.07902368 35.6875-24.125.69692963-.47149475 1.39385925-.9429895 2.11190796-1.42877197 4.90029835-3.31526007 9.80046163-6.63071975 14.70059204-9.94622803 5.60407197-3.79180664 11.20820701-7.58352002 16.8125-11.375 1.04503189-.70700043 1.04503189-.70700043 2.11117554-1.42828369 11.96978561-8.0977004 23.94369296-16.18929062 35.9187622-24.27917481 11.0552075-7.4685465 22.10772118-14.94105775 33.15756226-22.4175415 11.83027231-8.00453492 23.66394035-16.00402521 35.5-24 11.89825437-8.03809045 23.79457671-16.07902368 35.6875-24.125.69692963-.47149475 1.39385925-.9429895 2.11190796-1.42877197 4.90029835-3.31526007 9.80046163-6.63071975 14.70059204-9.94622803 5.60407197-3.79180664 11.20820701-7.58352002 16.8125-11.375 1.04503189-.70700043 1.04503189-.70700043 2.11117554-1.42828369 11.96978561-8.0977004 23.94369296-16.18929062 35.9187622-24.27917481 8.25180627-5.57465782 16.50306715-11.15011551 24.75131226-16.7300415.69801727-.47217453 1.39603455-.94434906 2.11520386-1.43083191 3.47280295-2.34936445 6.94509551-4.69947801 10.41653442-7.05085754 6.8180354-4.6169725 13.6419745-9.22477674 20.47967529-13.81259156 3.42622675-2.29927878 6.85027948-4.60178431 10.27423096-6.90444946 1.64994196-1.10824706 3.30096675-2.21488389 4.953125-3.31982422 2.29553894-1.53536149 4.58732348-3.07618131 6.87841797-4.61816406 1.02098282-.67968086 1.02098282-.67968086 2.06259155-1.37309265.63209381-.42690628 1.26418762-.85381256 1.91543579-1.2936554.54586762-.36586715 1.09173523-.73173431 1.65414429-1.10868835 2.06757144-1.59145459 3.82521112-3.42063285 5.65689087-5.27534485-47.90804838-4.59006817-95.81642895-9.17665477-143.72525859-13.75856173-5.6540015-.54074069-11.30800024-1.08151024-16.96199727-1.62229765-1.1256256-.10766213-2.25125119-.21532426-3.41098665-.32624888-18.23428605-1.74411488-36.46834728-3.49056949-54.70232673-5.23788643-18.70489489-1.79239113-37.41002862-3.58227336-56.1153872-5.36981892-11.54540956-1.10339734-23.09062757-2.20875931-34.6356095-3.31662226-7.91309616-.75915612-15.82642266-1.51587868-23.73993571-2.27067661-4.56800676-.43577343-9.1359032-.87262998-13.70352971-1.31237269-4.181437-.4025389-8.36315427-.80202206-12.54511576-1.19907403-1.51301152-.14419591-3.02591658-.28951413-4.53870161-.4360671-2.05707713-.19911627-4.11450425-.39413206-6.17206775-.58814836-1.14257847-.10935945-2.28515695-.21871891-3.46235901-.33139229-7.57627649-.76488949-7.57627649-.76488949-14.31797451 2.05041695zm433.03125 98.71875c-.98117798.7259436-.98117798.7259436-1.98217773 1.46655273-6.90111664 5.06748367-13.93624181 9.87916787-21.08032227 14.59594727-2.40100407 1.59184914-4.80030781 3.18624864-7.19921875 4.78125-.62521545.41556656-1.25043091.83113312-1.89459229 1.2592926-7.43339638 4.94625995-14.8265347 9.95186216-22.21868896 14.9594574-1.06010788.71798264-1.06010788.71798264-2.14163208 1.45046997-2.91688555 1.97554819-5.83368796 3.95121893-8.7502594 5.92723084-7.62899865 5.16824706-15.2646444 10.3266395-22.90074158 15.48439025-12.67633836 8.56229625-25.34987772 17.12872049-38.01986694 25.70040894-.69692963.47149475-1.39385925.9429895-2.11190796 1.42877197-4.90029835 3.31526007-9.80046163 6.63071975-14.70059204 9.94622803-5.60407197 3.79180664-11.20820701 7.58352002-16.8125 11.375-1.04503189.70700043-1.04503189.70700043-2.11117554 1.42828369-11.96978561 8.0977004-23.94369296 16.18929062-35.9187622 24.27917481-11.0552075 7.4685465-22.10772118 14.94105775-33.15756226 22.4175415-11.83027231 8.00453492-23.66394035 16.00402521-35.5 24-11.89825437 8.03809045-23.79457671 16.07902368-35.6875 24.125-.69692963.47149475-1.39385925.9429895-2.11190796 1.42877197-4.90029835 3.31526007-9.80046163 6.63071975-14.70059204 9.94622803-5.60407197 3.79180664-11.20820701 7.58352002-16.8125 11.375-1.04503189.70700043-1.04503189.70700043-2.11117554 1.42828369-11.96978561 8.0977004-23.94369296 16.18929062-35.9187622 24.27917481-11.0552075 7.4685465-22.10772118 14.94105775-33.15756226 22.4175415-11.83027231 8.00453492-23.66394035 16.00402521-35.5 24-11.89825437 8.03809045-23.79457671 16.07902368-35.6875 24.125-.69692963.47149475-1.39385925.9429895-2.11190796 1.42877197-4.90029835 3.31526007-9.80046163 6.63071975-14.70059204 9.94622803-4.90095058 3.31606322-9.80194249 6.63206533-14.70306396 9.94787598-1.40386048.94977187-2.8077098 1.89956022-4.21154786 2.84936523-8.98844106 6.08123605-17.97953644 12.1585242-26.97317505 18.23207092-7.67109378 5.18051628-15.34041534 10.36365009-23.00857543 15.54850769-2.04245256 1.38081551-4.08522549 2.76115593-6.12805176 4.14141846-3.01182225 2.03533142-6.02207909 4.07295552-9.03097534 6.11260986-1.5867514 1.07492387-3.17496183 2.14769298-4.76321412 3.22039795-1.39496704.94673584-1.39496704.94673584-2.81811523 1.91259766-.80139404.54261475-1.60278809 1.08522949-2.4284668 1.64428711-3.08116908 2.21494262-4.23325889 3.80512621-5.29052734 7.38012695-.25504303.85049423-.51008606 1.70098847-.77285767 2.57725525-.27854828.95258194-.55709655 1.90516388-.84408569 2.88661194-.30642426 1.02803238-.61284851 2.05606476-.92855835 3.11524963-.68767788 2.30991694-1.37235105 4.62072981-2.05456543 6.93226624-1.13605714 3.84874796-2.27945009 7.69527418-3.42532349 11.54110718-1.31583989 4.41747487-2.63118394 8.83509372-3.9440155 13.25346374-6.26988715 21.09708448-12.60555838 42.1744928-18.93266296 63.25447083-2.19490928 7.31294962-4.3886462 14.62625066-6.58230591 21.93957519-6.85823064 22.86271319-13.7207156 45.72406895-20.62191773 68.57385254-3.51678673 11.64438662-7.02818887 23.29039721-10.53799438 34.93688965-.30073929.99788795-.60147858 1.99577591-.91133118 3.02390289-4.4245663 14.68203586-8.84518089 29.36525457-13.25933456 44.05042458-1.9114816 6.3589435-3.82429097 12.7174823-5.74022293 19.07508659-1.81043867 6.00774954-3.61734505 12.01655035-5.42162705 18.02615166-.674851 2.2455418-1.35097371 4.49070183-2.02841949 6.73546219-.93600388 3.10229121-1.86743352 6.20592053-2.7977562 9.30991936-.27517707.90819236-.55035415 1.81638473-.83386993 2.75209808-1.29211594 4.32836273-2.40137497 8.53660493-3.00743866 13.02695465 8.49640064-4.26691486 16.26101602-9.41848647 24.12890625-14.7265625 4.88034573-3.29160186 9.80619093-6.50961382 14.74609375-9.7109375.83418457-.54100342 1.66836914-1.08200684 2.52783203-1.6394043 1.6925006-1.09724433 3.38520902-2.19416815 5.078125-3.29077148 4.11303881-2.66522363 8.22232711-5.33621159 12.33154297-8.00732422.81710449-.53101318 1.63420898-1.06202637 2.47607422-1.60913086 6.408012-4.16551917 12.81038291-8.33965061 19.21142578-12.51586914 9.67598947-6.31288484 19.35987859-12.61350298 29.04833984-18.90722656 4.15105399-2.69682098 8.30131254-5.39486558 12.45166016-8.09277344 1.66666295-1.08333905 3.33332961-2.16667239 5-3.25 1.2375-.804375 1.2375-.804375 2.5-1.625 27.50000002-17.87500001 27.50000002-17.87500001 29.99926758-19.49951172 1.66912294-1.08493806 3.33823098-2.16989905 5.00732422-3.25488281 4.12896462-2.68396785 8.2581751-5.36755578 12.38793945-8.05029297 8.87388015-5.76519602 17.74272373-11.53801098 26.60546875-17.3203125 9.67598947-6.31288484 19.35987859-12.61350298 29.04833984-18.90722656 4.15105399-2.69682098 8.30131254-5.39486558 12.45166016-8.09277344 1.66666295-1.08333905 3.33332961-2.16667239 5-3.25l2.5-1.625c27.49999999-17.87499999 27.49999999-17.87499999 29.99926758-19.49951172 1.66912294-1.08493806 3.33823098-2.16989905 5.00732422-3.25488281 4.12896462-2.68396785 8.2581751-5.36755578 12.38793945-8.05029297 8.87388015-5.76519602 17.74272373-11.53801098 26.60546875-17.3203125 9.67598947-6.31288484 19.35987859-12.61350298 29.04833984-18.90722656 4.15105399-2.69682098 8.30131254-5.39486558 12.45166016-8.09277344 1.66666295-1.08333905 3.33332961-2.16667239 5-3.25l2.5-1.625c47.49999999-30.87499999 47.49999999-30.87499999 49.99926758-32.49951172 1.66912294-1.08493806 3.33823098-2.16989905 5.00732422-3.25488281 4.12896462-2.68396785 8.2581751-5.36755578 12.38793945-8.05029297 8.87388015-5.76519602 17.74272373-11.53801098 26.60546875-17.3203125 9.67598947-6.31288484 19.35987859-12.61350298 29.04833984-18.90722656 4.15105399-2.69682098 8.30131254-5.39486558 12.45166016-8.09277344 1.66666295-1.08333905 3.33332961-2.16667239 5-3.25.825-.53625 1.65-1.0725 2.5-1.625 9.16666667-5.95833333 18.33333333-11.91666667 27.5-17.875.8262085-.53705566 1.65241699-1.07411133 2.50366211-1.62744141 1.65438516-1.0753099 3.30884391-2.15050659 4.96337891-3.22558593 4.35520693-2.8301325 8.70884042-5.66264789 13.06030273-8.49853516.90556641-.58974609 1.81113281-1.17949219 2.74414063-1.78710938 1.73224429-1.12817961 3.46404076-2.25704723 5.1953125-3.38671874 1.1746582-.76473633 1.1746582-.76473633 2.37304687-1.54492188 1.02661743-.66926514 1.02661743-.66926514 2.07397461-1.35205078 2.08618164-1.32763672 2.08618164-1.32763672 4.59191894-2.59907532 2.99020022-2.07225353 3.46572016-3.27008469 4.48864747-6.71318054.31629364-1.03077667.63258728-2.06155335.95846557-3.12356567.32622345-1.13090058.6524469-2.26180115.98855591-3.42697144.35973907-1.19068085.71947815-2.38136169 1.09011841-3.60812378.78171306-2.59691083 1.556264-5.19479843 2.31939697-7.79711914 1.22976753-4.1934499 2.48518696-8.37895862 3.74404907-12.56375122 1.76955869-5.89056207 3.52783205-11.78438198 5.27905274-17.68041992 2.4631767-8.28858632 4.96284734-16.56578228 7.47753906-24.83886719.19805174-.6517709.39610348-1.30354179.60015678-1.97506332.80342541-2.64395553 1.60693972-5.28788397 2.41073704-7.93172646 2.07657706-6.8314017 4.14430414-13.66547492 6.21186733-20.49960899 5.62532729-18.5927589 11.27045834-37.17948992 16.91834069-55.76540757.75784378-2.49392828 1.51563933-4.98787121 2.27341842-7.48181915 3.83452534-12.61989333 7.669585-25.23962426 11.50473023-37.85932922 16.56775392-54.51560488 16.56775392-54.51560488 33.11260986-109.03816223.85524923-2.82058699 1.71080291-5.64108131 2.56665039-8.46148682 2.21467822-7.29909942 4.42347342-14.59993381 6.62408447-21.90328979.86440007-2.85755196 1.7386851-5.71187722 2.6157837-8.56555176.47469936-1.56339984.94916839-3.12686965 1.42333984-4.69042969.21327438-.68303192.42654877-1.36606384.64628601-2.0697937 1.18538858-3.4103261 1.18538858-3.4103261.24043274-6.7348938z" fill="#199131" transform="translate(659 3508)"/><path d="m0 0c1.75512909.00323273 1.75512909.00323273 3.54571533.00653076 17.32157654.05117638 34.33567204.41855442 51.45428467 3.30596924 1.22654297.20399414 2.45308594.40798828 3.71679688.61816406 75.73433208 12.94910059 147.22551254 47.18475609 201.28320312 102.38183594 2.58142124 2.59434989 5.17621799 5.17178792 7.796875 7.7265625 6.5609086 6.41631254 12.51183564 13.06128259 18.203125 20.2734375.90810392 1.10845539 1.8183701 2.21514187 2.73046875 3.3203125 41.06700761 50.01556777 67.00409495 110.7487238 77.51953125 174.4296875.15122314.90782227.30244629 1.81564453.45825195 2.75097656 2.82852874 18.29040719 3.7029954 36.6393389 3.66674805 55.12402344-.00081573 1.58524475-.00081573 1.58524475-.00164795 3.20251465-.1118098 47.68106416-8.83307049 95.10455923-27.37335205 139.17248535-.50152588 1.19713623-.50152588 1.19713623-1.01318359 2.41845703-12.67445345 29.8982484-28.63652996 58.24229541-48.98681641 83.58154297-1.07121094 1.37091797-1.07121094 1.37091797-2.1640625 2.76953125-8.64923001 11.01620036-17.77605624 21.48441394-27.8359375 31.23046875-2.5963072 2.57963749-5.17170263 5.1761305-7.7265625 7.796875-6.41732699 6.56194592-13.06779375 12.50227432-20.2734375 18.203125-1.02707358.8605031-2.05171578 1.72391453-3.07421875 2.58984375-48.3763663 40.51104007-109.725932 66.57868974-171.73828125 76.66015625-.92796387.15106201-1.85592773.30212402-2.81201172.45776367-3.12067965.47689752-6.24359214.895186-9.37548828 1.29223633-.67841949.08720306-1.35683899.17440613-2.05581665.26425171-14.83165864 1.851641-29.57374195 2.09553682-44.50668335 2.04824829-1.19404449-.00182281-2.38808899-.00364563-3.61831665-.00552368-17.12954129-.04405695-33.89704779-.42619423-50.81918335-3.30697632-1.07459473-.17160645-2.14918945-.34321289-3.25634766-.52001953-71.25830419-11.49128728-136.95796557-42.74326133-190.34912109-91.30419922-1.61868596-1.47081252-3.24659096-2.9315328-4.8828125-4.3828125-7.96018952-7.06884637-15.6479057-14.40049097-22.5625-22.5078125-1.49969883-1.75816396-3.02240891-3.49671875-4.5546875-5.2265625-17.25749218-19.58509789-31.75283055-41.264054-44.39453125-64.05859375-.48758789-.8765625-.97517578-1.753125-1.47753906-2.65625-28.44772668-51.59509517-42.71320245-109.64336347-44.52246094-168.34375-.02336426-.68642578-.04672852-1.37285156-.07080078-2.08007812-2.95808152-98.53642978 37.2650873-193.51115838 104.12768555-264.71923829 6.70408197-7.09271083 13.52888177-13.85086978 20.94311523-20.20068359 1.01886499-.89380698 2.03704018-1.78840063 3.0546875-2.68359375 21.07291454-18.44147445 44.3126312-34.03023915 68.9453125-47.31640625.86141602-.4650293 1.72283203-.93005859 2.61035156-1.40917969 33.83831565-18.04962786 70.8841863-29.95106678 108.63964844-36.34082031 1.16982422-.19867676 2.33964844-.39735352 3.54492188-.60205078 19.07379986-3.07616424 37.89532418-4.02450336 57.20507812-3.96044922zm-195 132.3125c-1.04434607.86216533-2.08999597 1.72275295-3.13671875 2.58203125-13.86129571 11.48656352-26.84137787 24.1686572-37.86328125 38.41796875-.92248149 1.12510943-1.84850971 2.24731668-2.77734375 3.3671875-51.63313104 62.58382929-74.14544332 144.91304566-66.91015625 225.15625 5.91629176 58.93401345 28.79731641 115.20919609 65.6875 161.4765625.79148437 1.00546875 1.58296875 2.0109375 2.3984375 3.046875 11.79382514 14.73163717 25.07650823 29.101444 39.90625 40.8046875 1.76933933 1.41034295 3.50588005 2.86305001 5.203125 4.359375 14.80390007 12.99117761 32.05395197 23.69005183 49.4921875 32.7890625.93271729.49306641.93271729.49306641 1.88427734.99609375 41.92659978 22.05195424 88.66897962 34.34720392 136.11572266 35.00390625 1.35460327.01981934 1.35460327.01981934 2.73657227.04003906 62.02718267.47025141 124.11027518-17.80090909 175.26342773-53.04003906.61665527-.41991211 1.23331055-.83982422 1.86865234-1.27246094 8.85147991-6.04894412 17.05953249-12.67967885 25.13134766-19.72753906.73863281-.63808594 1.47726562-1.27617188 2.23828125-1.93359375 1.93194731-1.67641921 3.8495124-3.36751376 5.76171875-5.06640625.81210937-.71929688 1.62421875-1.43859375 2.4609375-2.1796875 7.70976872-6.87628021 14.82450912-13.9735011 21.5390625-21.8203125 1.20269531-1.36898438 1.20269531-1.36898438 2.4296875-2.765625 44.44079296-50.97958615 73.43704212-120.66072055 73.7734375-188.67578125.00701431-.95760223.01402863-1.91520447.02125549-2.90182495.01739864-3.07313808.0238523-6.14608328.02561951-9.2192688.00067474-1.05140167.00134949-2.10280334.00204468-3.18606567-.01625491-15.94363642-.46021637-31.51369387-3.25204468-47.25143433-.25740967-1.47388184-.25740967-1.47388184-.52001953-2.97753906-13.4402592-74.5399898-53.25186594-144.36263253-113.47998047-191.02246094-.63405762-.4954834-1.26811523-.9909668-1.92138672-1.50146484-83.82792715-65.09152053-196.04154056-81.35940315-384.07861328 6.50146484z" fill="#208540" transform="translate(3997 220.6875)"/><path d="m0 0c3.30748484 3.72293871 4.60201993 7.95608752 6.1953125 12.58203125.30413818.86392868.60827637 1.72785736.92163086 2.6179657.6605193 1.87839854 1.3178845 3.75790847 1.97247314 5.63838196 1.42015211 4.07857438 2.85623985 8.15147858 4.2916565 12.22470092.75179832 2.13339305 1.50286557 4.26704385 2.25323486 6.40093995 3.76611142 10.70201724 7.62082915 21.37113139 11.49069214 32.03598022 1.41314782 3.89829714 2.82572531 7.79680086 4.23828125 11.6953125.3640242 1.00440628.7280484 2.00881256 1.10310364 3.0436554 3.03361012 8.37316243 6.05661158 16.75013175 9.07658386 25.1282196.23858734.66185051.47717468 1.32370102.72299194 2.0056076 2.13352274 5.9185842 4.26667694 11.83730103 6.39889527 17.75635529 7.0741786 19.63746777 14.20195068 39.25456788 21.33514404 58.87084961l223 1c-3.40778584 3.40778584-6.50780951 5.7004382-10.5625 8.125-7.71913208 4.71536091-15.24131969 9.70927509-22.75 14.75-8.67554553 5.81905299-17.40064788 11.53645862-26.25805664 17.07641602-5.21879587 3.26835403-10.36163963 6.63129215-15.47216797 10.06591796-5.55807496 3.73092258-11.15998239 7.39255274-16.76977539 11.04516602-1.45744629.94903198-1.45744629.94903198-2.94433594 1.91723633-2.03237319 1.32334834-4.06476289 2.64667133-6.09716797 3.9699707-5.38623259 3.51028879-10.76589727 7.03061337-16.14599609 10.55029297-9.08386523 5.94164348-18.17276544 11.87548528-27.26586914 17.80297852-11.5857793 7.55383518-23.15978419 15.12568518-34.73413086 22.69702148.75501694 4.67336423 2.30195868 8.96075109 3.89453125 13.3984375.29872009.840504.59744019 1.681008.9052124 2.54698181 1.00055127 2.81119474 2.00649324 5.62042585 3.01275635 8.42958069.71941577 2.01583484 1.43873311 4.03170482 2.15795898 6.04760742 6.28814192 17.599852 12.68067495 35.16163186 19.0822754 52.72045899 7.55137319 20.72090417 15.01449047 41.47305418 22.45613384 62.23357105.9338881 2.60505209 1.86827082 5.20992659 2.80276012 7.81476307.66673269 1.85906374 1.33277742 3.71837416 1.99881172 5.57768822 1.94155014 5.4101489 3.89693849 10.81362957 5.90977478 16.19770813.33259323.89064147.66518647 1.78128295 1.00785828 2.69891357.60460351 1.61213205 1.21348282 3.22267041 1.82766724 4.83117676 1.11942633 2.98014153 1.94425964 5.29058417 1.94425964 8.50311279-3.76697024-1.37539102-6.91988793-3.10661649-10.26171875-5.31640625-1.02287109-.67289063-2.04574219-1.34578125-3.09960937-2.0390625-1.64645508-1.09248047-1.64645508-1.09248047-3.32617188-2.20703125-1.16179677-.76609927-2.32391199-1.53171583-3.48632812-2.296875-2.41383537-1.58944177-4.8262894-3.18094865-7.23779297-4.77392578-5.51670182-3.64171764-11.05355568-7.25261152-16.58837891-10.86669922-2.16285812-1.41391305-4.32561819-2.82797611-6.48828125-4.2421875-1.6080249-1.0513916-1.6080249-1.0513916-3.24853516-2.12402344-3.28970505-2.15113139-6.57920296-4.30257923-9.86865234-6.45410156-10.29418847-6.73269198-20.59035742-13.46228557-30.89453125-20.1796875-10.29781911-6.71325922-20.58782153-13.43841722-30.875-20.16796875-4.43559931-2.90135906-8.87324311-5.79955307-13.3125-8.6953125-1.09836182-.71704102-2.19672363-1.43408203-3.32836914-2.17285156-2.17795798-1.42132606-4.35681581-2.8412743-6.53662109-4.25976563-5.24149663-3.41873321-10.45068316-6.8737779-15.60766602-10.41894531-.96574951-.6597583-1.93149902-1.3195166-2.92651367-1.99926758-1.81362596-1.24290784-3.62023036-2.49614554-5.41845703-3.76123047-.80010498-.54696533-1.60020996-1.09393066-2.42456055-1.6574707-.69335449-.48355957-1.38670898-.96711914-2.10107422-1.46533203-1.91521706-1.07813603-1.91521706-1.07813603-3.97241211-.69799805-2.18232689.87010246-4.03540933 1.90257653-6.01635742 3.16723633-.76642822.48621826-1.53285645.97243652-2.32250977 1.47338867-1.22287719.7885437-1.22287719.7885437-2.47045898 1.59301758-.85456787.54567627-1.70913574 1.09135254-2.58959961 1.65356445-5.51300795 3.53234204-10.98297003 7.12539856-16.41748047 10.77709961-6.19291902 4.1582297-12.43520836 8.24021511-18.68041992 12.31933594-.83991989.54870255-.83991989.54870255-1.69680786 1.10848999-8.70482675 5.68602258-17.41431849 11.36490268-26.12423706 17.04312134-11.56730918 7.54191336-23.12266801 15.10210226-34.67895508 22.66088867-22.97997861 15.03084416-45.9713526 30.04380128-69 45-1-2-1-2-.55130005-3.82243347.40606979-1.11306267.40606979-1.11306267.82034302-2.24861145.30628326-.85113373.61256653-1.70226746.9281311-2.57919312.34485443-.93397613.68970886-1.86795227 1.04501343-2.83023071.3542807-.97796539.7085614-1.95593079 1.07357788-2.96353149 1.1793707-3.25044053 2.36936913-6.49688784 3.55923462-9.74349976.83114974-2.28512916 1.66154329-4.57053349 2.49121094-6.85620117 1.71045778-4.70913342 3.42485851-9.41680169 5.14257812-14.12329102 3.26255648-8.94236643 6.49647455-17.89502623 9.73022461-26.84783935 1.0215686-2.82695242 2.0443849-5.65345027 3.06762695-8.47979737 3.8542469-10.64638772 7.7010239-21.29544336 11.5391388-31.94765663.72707559-2.01789584 1.45424823-4.03575669 2.18144226-6.05360985 2.85782751-7.93010738 2.85782751-7.93010738 5.71362305-15.86094665 1.3226198-3.67429008 2.64612583-7.34825935 3.97009277-11.02206421.42655884-1.18431107.85311768-2.36862213 1.29260254-3.58882141 2.34549972-6.49992014 4.71301168-12.99093387 7.10681152-19.47319031.25653918-.69560374.51307835-1.39120748.77739144-2.10789013 1.2431438-3.37041029 2.48946348-6.73957593 3.74174308-10.10660267.4414737-1.19515731.88294739-2.39031463 1.33779908-3.62168884.39321441-1.05900009.78642883-2.11800018 1.19155883-3.20909119.94692957-2.38811406.94692957-2.38811406.84115601-4.5138092-2.14858879-1.64951773-2.14858879-1.64951773-4.94140625-3.34375-1.57612061-.99592163-1.57612061-.99592163-3.18408203-2.01196289-.56076233-.34982941-1.12152466-.69965881-1.69927979-1.06008911-2.33003213-1.45374332-4.6503636-2.92262504-6.97113037-4.39109802-1.15349473-.72978832-2.30746591-1.45882411-3.46191406-2.18710328-4.16439866-2.62927616-8.28476724-5.3141142-12.3671875-8.0684967-9.01164064-6.06118744-18.12796057-11.96151584-27.22900391-17.88720703-5.38623259-3.51028879-10.76589727-7.03061337-16.14599609-10.55029297-8.16284224-5.33921377-16.32887574-10.67346962-24.5-16-9.26931454-6.04241031-18.53169426-12.09536437-27.79101562-18.15307617-6.26333124-4.09687301-12.53156729-8.18606901-18.80444336-12.26831055-8.1300812-5.29340245-16.251901-10.59932025-24.34204102-15.95361328-.77021484-.50635986-1.54042969-1.01271973-2.33398438-1.53442383-1.76087403-1.17016222-3.49779379-2.37626198-5.22851562-3.59057617 0-.33 0-.66 0-1h223c.99-3.3 1.98-6.6 3-10 .5868484-1.75770433 1.18792165-3.51086066 1.81494141-5.25463867.32599685-.91057663.65199371-1.82115326.98786926-2.75932312.3460881-.9583223.69217621-1.91664459 1.04875183-2.90400696.55629341-1.55005486.55629341-1.55005486 1.12382507-3.13142395 1.21395262-3.38030454 2.43171104-6.75922367 3.64961243-10.1381073.85979569-2.39121257 1.7194121-4.78248961 2.57885742-7.17382812 6.02733434-16.76213495 12.07942059-33.51536902 18.14575196-50.26342774 4.12826643-11.39784192 8.24748654-22.79890603 12.35742187-34.20336914.49544534-1.37463467.99089314-2.74926846 1.48634338-4.12390137 1.95038497-5.41162621 3.90072703-10.82326759 5.84950257-16.23547363 2.97904113-8.27324897 5.96270951-16.54480085 8.9571228-24.8125.366698-1.01263916.733396-2.02527832 1.11120605-3.06860352.98805179-2.72322562 1.98033587-5.44485694 2.97473145-8.16577148.28573883-.7877179.57147766-1.57543579.86587524-2.38702393 1.93215594-5.26256975 1.93215594-5.26256975 3.04818726-6.37860107z" fill="#d0b300" transform="translate(3998 330)"/><path d="m0 0 2 1c-11.65064459 32.89408968-23.33303887 65.77606056-35.12329102 98.62042236-.57899047 1.61294953-.57899047 1.61294953-1.16967773 3.25848389-.38502686 1.07256042-.77005371 2.14512085-1.16674805 3.25018311-4.08674971 11.38771316-8.15716534 22.78124765-12.22528076 34.17562866-1.24277008 3.48052534-2.48610626 6.96084802-3.72955322 10.44113159-3.92506551 10.98801302-7.84460722 21.97794519-11.75013733 32.97291565-1.61036263 4.53333141-3.2230365 9.06583965-4.83624554 13.59815884-1.10019025 3.09155405-2.19862461 6.18371515-3.29469013 9.27673435-1.21077917 3.41653473-2.42588144 6.83150404-3.64187622 10.2461853-.35328873 1.00056427-.70657745 2.00112854-1.0705719 3.03201294-.97123175 2.7199258-1.97371079 5.42550392-2.9919281 8.12814331-.29735046.83042313-.59470093 1.66084625-.90106201 2.51643372-2.21767867 5.67840767-4.69918299 8.39459472-9.92706299 11.44059753-1.35362365.84439066-2.70713641 1.68895909-4.06054688 2.53369141-.68666748.41703186-1.37333496.83406372-2.08081054 1.26373291-3.13933489 1.92570659-6.19723502 3.97012721-9.26489258 6.00726318-1.22661858.80559414-2.45384253 1.61026719-3.68164062 2.4140625-4.0965023 2.68367783-8.19186723 5.36908719-12.28710938 8.0546875-.72058594.47247162-1.44117188.94494324-2.18359375 1.43173218-8.04171805 5.27324492-16.07748523 10.55553614-24.11328125 15.83779907-11.16371748 7.33783322-22.33012766 14.67153941-33.5 22-11.10700782 7.28734655-22.2110922 14.57912518-33.3125 21.875-.72619537.47725525-1.45239075.9545105-2.20059204 1.44622803-5.1623983 3.39277847-10.32466778 6.78575292-15.48690796 10.17877197-5.89574495 3.87513448-11.79154678 7.75018239-17.6875 11.625-.72643707.47741638-1.45287415.95483276-2.20132446 1.44671631-11.02510504 7.24549358-22.05372289 14.48561747-33.08425904 21.72283935-10.44922476 6.85596205-20.89537345 13.71659139-31.3394165 20.58044434-.72619537.47725525-1.45239075.9545105-2.20059204 1.44622803-5.1623983 3.39277847-10.32466778 6.78575292-15.48690796 10.17877197-5.89574495 3.87513448-11.79154678 7.75018239-17.6875 11.625-.72643707.47741638-1.45287415.95483276-2.20132446 1.44671631-11.02510504 7.24549358-22.05372289 14.48561747-33.08425904 21.72283935-11.91644938 7.81863982-23.82901454 15.64317806-35.73858642 23.47229004-6.6624351 4.37963661-13.32538488 8.75846945-19.99224854 13.13136292-2.96909075 1.94751502-5.9377618 3.89566908-8.90631103 5.8440094-1.45991642.95809796-2.91995733 1.91600625-4.38012696 2.87371826-7.96003141 5.22204386-15.90211574 10.46874336-23.80651855 15.77468872-1.0546772.70712883-1.0546772.70712883-2.13066101 1.42854309-3.34119828 2.24066991-6.67906617 4.48600729-10.01118469 6.74015808-1.1778644.79159236-2.35583649 1.5830245-3.53393555 2.37426758-1.02359619.69150146-2.04719238 1.38300293-3.10180664 2.09545898-2.42553711 1.47094727-2.42553711 1.47094727-4.42553711 1.47094727.72523519-4.80879361 2.47782169-9.08985691 4.26171875-13.58203125.33787033-.86060028.67574066-1.72120056 1.02384949-2.60787964 1.13008732-2.87574354 2.26604919-5.74913021 3.40193176-8.62258911.80720382-2.0510306 1.61399795-4.10222248 2.42041016-6.15356445 1.72702435-4.39139068 3.45639656-8.78184661 5.1875-13.17163086 2.70291588-6.85546759 5.39808449-13.71396221 8.09130859-20.57324219.90991076-2.31730196 1.81982288-4.63460339 2.72973633-6.9519043.45355865-1.15511078.90711731-2.31022155 1.37442016-3.50033569 1.8650591-4.74889977 3.73133768-9.4973199 5.59761048-14.2457428 5.6441865-14.3609461 11.27980536-28.72523659 16.91151428-43.09107971 4.74301182-12.09818064 9.48696225-24.19599081 14.23661804-36.29156494.96378387-2.45445806 1.92733613-4.90900707 2.89065552-7.36364746 2.36981347-6.03690364 4.74444239-12.0718226 7.12980652-18.1026001 3.980345-10.07419359 7.9287258-20.14898014 11.63354492-30.328125.84280867-2.27712979 1.6881882-4.55328454 2.53469849-6.82904053.72806835-1.99171515 1.41757887-3.99378546 2.10568237-5.99957275 3.27017389-8.77551917 7.4555703-12.86590466 15.46899414-17.58544922 1.20880139-.77791901 2.41721163-1.55644662 3.625-2.3359375 1.11375-.67289063 2.2275-1.34578125 3.375-2.0390625 7.63349976-4.67637823 15.06734666-9.63899991 22.5-14.625 7.71586819-5.17264247 15.44335934-10.30013975 23.35766602-15.16625977 6.43546066-3.97392848 12.75525546-8.12417964 19.07983398-12.27124023.56657318-.37146149 1.13314636-.74292297 1.71688843-1.12564087 2.7782516-1.82169933 5.55632439-3.64367119 8.3343811-5.46566772 3.95307694-2.5877366 7.91695087-5.15839862 11.88623047-7.72119141 5.98539135-3.86547403 11.96417446-7.74090112 17.9375-11.625.83708496-.54430664 1.67416992-1.08861328 2.53662109-1.64941406 1.70087558-1.10607486 3.4017218-2.21219486 5.10253907-3.31835938 4.18229847-2.71981625 8.36535288-5.43846934 12.54833984-8.15722656 1.66667039-1.08332761 3.33333705-2.16666095 5-3.25l90-58.5c.8252417-.53641113 1.6504834-1.07282227 2.50073242-1.62548828 1.66421038-1.08172862 3.32843561-2.1634344 4.99267578-3.24511719 4.20437075-2.73269698 8.40847094-5.46580858 12.61206055-8.19970703 8.48311762-5.51662864 16.97067667-11.02618981 25.46826172-16.52050781 7.96821733-5.15361037 15.92280754-10.32816164 23.87792969-15.50195313 4.18229847-2.71981625 8.36535288-5.43846934 12.54833984-8.15722656 1.66667039-1.08332761 3.33333705-2.16666095 5-3.25l30-19.5c.8252417-.53641113 1.6504834-1.07282227 2.50073242-1.62548828 1.66421038-1.08172862 3.32843561-2.1634344 4.99267578-3.24511719 5.05501193-3.28558462 10.10961297-6.57179902 15.16333008-9.859375 1.67083593-1.08605947 3.34237206-2.17104259 5.01464844-3.25488281 4.11231991-2.66610369 8.21287159-5.34753883 12.29345703-8.06201172.78544189-.51868652 1.57088379-1.03737305 2.38012695-1.57177734 1.48851928-.98342049 2.97294781-1.97306904 4.45263672-2.96972657 1.69531364-1.11524494 3.44447103-2.1479291 5.20239258-3.16162109z" fill="#198f31" transform="translate(1009 3757)"/><path d="m0 0c.64464677.00819055 1.28929354.0163811 1.95347506.02481985 9.99957614.17112785 19.99219772.70396097 29.98046964 1.18355417 2.31743991.10867431 4.63489437.21703872 6.95236206.32511902 6.24906314.29230905 12.49791544.58891793 18.74673724.88633537 6.54615019.31082405 13.09248809.61764306 19.63880659.92489815 10.97390347.51548497 21.94767842 1.03364456 32.92137146 1.55358887 11.29549521.53518483 22.59105939 1.06887612 33.88671875 1.60058594.6980031.03285695 1.39600621.0657139 2.11516093.09956652 3.50219609.16484898 7.00439355.32966889 10.50659169.49447435 28.98591481 1.36404866 57.97158599 2.73322869 86.9571048 4.10566616v3c-1.81640625 1.48046875-1.81640625 1.48046875-4.5625 3.1875-6.27208694 4.02360294-12.39431129 8.22808455-18.5 12.5-7.12350618 4.9707825-14.2603655 9.91945303-21.4375 14.8125-7.02839236 4.79300324-14.02117098 9.63512844-21 14.5-6.97883067 4.8648727-13.97170159 9.70685741-21 14.5-8.08409838 5.51349125-16.12012019 11.09425329-24.14868164 16.68823242-8.70954687 6.06682192-17.45275654 12.08329516-26.20776367 18.08422852-9.57927334 6.56792996-19.12276679 13.18588883-28.65356446 19.82397461-6.10517172 4.25029572-12.22405541 8.47940231-18.35986328 12.68530273-5.83345043 4.00350807-11.63791148 8.04824345-17.44262695 12.09326172-7.80185001 5.43579876-15.62785166 10.83344397-23.48364258 16.19091797-6.26014984 4.27493616-12.48517275 8.59909946-18.70385742 12.93408203-6.97883067 4.8648727-13.97170159 9.70685741-21 14.5-8.08409838 5.51349125-16.12012019 11.09425329-24.14868164 16.68823242-8.70954687 6.06682192-17.45275654 12.08329516-26.20776367 18.08422852-8.57079443 5.8764768-17.11575447 11.78880846-25.64355469 17.72753906-10.48346165 7.30064645-20.9988393 14.55294616-31.54296875 21.765625-.68328369.46817139-1.36656739.93634277-2.07055664 1.41870117-1.26007808.86335001-2.52087097 1.72565867-3.78271485 2.58642578-.59369384.40694092-1.18738769.81388184-1.79907226 1.2331543-.6293149.41381266-1.2586298.82762533-1.90701485 1.25397777-2.52073807 1.75529189-2.52073807 1.75529189-5.0116539 4.19464302-10.88559011 9.7597487-22.1518256 8.77123419-36.10135078 8.33140851-2.48495819-.04069065-4.96999352-.0768792-7.45507813-.1089325-6.02072958-.08910286-12.03873754-.22492209-18.05793513-.3821132-7.02326479-.18092071-14.04720072-.30394833-21.07172689-.42397134-12.54011544-.21584798-25.07882388-.47777701-37.61740829-.76857671-12.14150031-.28150068-24.28313969-.53935894-36.42578125-.76660157-.74823391-.01400981-1.49646782-.02801963-2.26737549-.04245398-3.00845402-.05623795-6.01691093-.1123179-9.02537184-.16818647-23.0796796-.42889414-46.15902794-.88104868-69.23683946-1.40145252-2.4105551-.05401044-4.82113714-.106834-7.23174668-.15835762-3.30133953-.07098651-6.60253525-.14675321-9.90373611-.2238884-.94379709-.01947215-1.88759419-.03894429-2.85999119-.05900651-6.73751288-.16537305-13.42136722-.66044098-20.13167751-1.28039473 3.50305714-3.71832881 7.13128963-6.6155606 11.4375-9.375 1.33808138-.87501615 2.67526487-1.75140636 4.01171875-2.62890625 1.08933838-.71373779 1.08933838-.71373779 2.20068359-1.44189453 4.39837342-2.90879339 8.74674966-5.89112745 13.10009766-8.86669922 1.40813965-.96147949 1.40813965-.96147949 2.84472656-1.94238281 2.80240438-1.91409507 5.6039828-3.82939262 8.40527344-5.74511719.83644043-.57186035 1.67288086-1.1437207 2.53466797-1.73291016 4.7139895-3.22316783 9.42665418-6.44826679 14.13867187-9.6743164 4.73563538-3.24189771 9.47242539-6.48210821 14.20898438-9.72265625 3.92110262-2.68273264 7.84195377-5.36583101 11.76220703-8.04980469 9.37853044-6.42020205 18.76499451-12.82863493 28.15673828-19.22949219 8.29753977-5.65602272 16.58608964-11.32510877 24.87207031-16.99804687 4.73563538-3.24189771 9.47242539-6.48210821 14.20898438-9.72265625 3.92110262-2.68273264 7.84195377-5.36583101 11.76220703-8.04980469 9.37853044-6.42020205 18.76499451-12.82863493 28.15673828-19.22949219 8.29753977-5.65602272 16.58608964-11.32510877 24.87207031-16.99804687 3.94168221-2.69837721 7.88421906-5.39550518 11.82666016-8.09277344 1.58333732-1.0833275 3.16667066-2.16666083 4.75-3.25 3.16666666-2.16666667 6.33333333-4.33333333 9.5-6.5.7835083-.53608887 1.5670166-1.07217774 2.37426758-1.62451172 1.58575877-1.08498427 3.17153355-2.16994515 4.75732421-3.25488281 3.92135462-2.68288392 7.8424441-5.36615354 11.76293946-8.05029297 9.37853044-6.42020205 18.76499451-12.82863493 28.15673828-19.22949219 8.29753977-5.65602272 16.58608964-11.32510877 24.87207031-16.99804687 4.73563538-3.24189771 9.47242539-6.48210821 14.20898438-9.72265625 3.92110262-2.68273264 7.84195377-5.36583101 11.76220703-8.04980469 9.37768922-6.41962618 18.76254574-12.82861415 28.15454101-19.22729492 5.20241613-3.54521145 10.40016612-7.09698295 15.58862305-10.66259766 1.56379226-1.07102638 3.13081794-2.13734824 4.70117188-3.19873047 3.92408693-2.65450507 7.77925532-5.36238939 11.56738281-8.20825195.77118164-.55985596 1.54236328-1.11971192 2.33691406-1.6965332 1.4396084-1.04575621 2.86083831-2.11763432 4.25585938-3.22216797 4.36365355-3.10897109 7.74456897-3.87943955 13.09217834-3.80334473z" fill="#198f31" transform="translate(671.341202 3605.801392)"/><path d="m0 0c14.36750027-.13221626 28.65318306.21899476 43 1v3c-1.65.66-3.3 1.32-5 2 .33-.66.66-1.32 1-2-3.21374977-1.60687488-6.75081667-1.36428456-10.2890625-1.53515625-1.22763565-.06446571-1.22763565-.06446571-2.48007202-.13023376-2.61842585-.13653736-5.23711848-.26689208-7.85586548-.39710999-1.77345849-.09139037-3.54689635-.18318216-5.3203125-.27539062-4.35133657-.22536462-8.70292237-.44518421-13.0546875-.66210938 0-.33 0-.66 0-1z" fill="#06220c" transform="translate(872 3616)"/><path d="m0 0 .875 1.9375c.95323451 2.21456079.95323451 2.21456079 3.125 3.0625-3.75 3-3.75 3-6 3 .52268466-2.76276177 1.10869587-5.3260876 2-8z" fill="#031607" transform="translate(508 4261)"/></svg>